%TF.GenerationSoftware,KiCad,Pcbnew,10.0.6-10.0.6~ubuntu24.04.1*%
%TF.CreationDate,2026-09-05T02:29:45+07:00*%
%TF.ProjectId,mach_robot,6d616368-5f72-46f6-926f-742e6b696361,rev?*%
%TF.SameCoordinates,Original*%
%TF.FileFunction,Soldermask,Bot*%
%TF.FilePolarity,Negative*%
%FSLAX46Y46*%
G04 Gerber Fmt 4.6, Leading zero omitted, Abs format (unit mm)*
G04 Created by KiCad (PCBNEW 10.0.6-10.0.6~ubuntu24.04.1) date 2026-09-05 02:29:45*
%MOMM*%
%LPD*%
G01*
G04 APERTURE LIST*
G04 Aperture macros list*
%AMRoundRect*
0 Rectangle with rounded corners*
0 $1 Rounding radius*
0 $2 $3 $4 $5 $6 $7 $8 $9 X,Y pos of 4 corners*
0 Add a 4 corners polygon primitive as box body*
4,1,4,$2,$3,$4,$5,$6,$7,$8,$9,$2,$3,0*
0 Add four circle primitives for the rounded corners*
1,1,$1+$1,$2,$3*
1,1,$1+$1,$4,$5*
1,1,$1+$1,$6,$7*
1,1,$1+$1,$8,$9*
0 Add four rect primitives between the rounded corners*
20,1,$1+$1,$2,$3,$4,$5,0*
20,1,$1+$1,$4,$5,$6,$7,0*
20,1,$1+$1,$6,$7,$8,$9,0*
20,1,$1+$1,$8,$9,$2,$3,0*%
G04 Aperture macros list end*
%ADD10C,1.500000*%
%ADD11RoundRect,0.250000X-1.263953X-0.751301X-0.751301X-1.263953X1.263953X0.751301X0.751301X1.263953X0*%
%ADD12RoundRect,0.250000X-0.132583X0.503814X-0.503814X0.132583X0.132583X-0.503814X0.503814X-0.132583X0*%
%ADD13RoundRect,0.250000X1.425000X-0.362500X1.425000X0.362500X-1.425000X0.362500X-1.425000X-0.362500X0*%
%ADD14RoundRect,0.250000X-0.751301X1.263953X-1.263953X0.751301X0.751301X-1.263953X1.263953X-0.751301X0*%
%ADD15R,1.700000X1.700000*%
%ADD16C,1.700000*%
%ADD17C,6.400000*%
%ADD18RoundRect,0.250000X-0.750000X0.750000X-0.750000X-0.750000X0.750000X-0.750000X0.750000X0.750000X0*%
%ADD19C,2.000000*%
%ADD20C,2.300000*%
%ADD21R,2.600000X2.600000*%
%ADD22C,2.600000*%
%ADD23C,0.600000*%
%ADD24O,1.800000X0.900000*%
%ADD25O,1.500000X0.900000*%
%ADD26RoundRect,0.250000X-0.550000X-0.500000X0.550000X-0.500000X0.550000X0.500000X-0.550000X0.500000X0*%
%ADD27C,1.600000*%
%ADD28C,3.000000*%
%ADD29RoundRect,0.250000X-0.475000X0.250000X-0.475000X-0.250000X0.475000X-0.250000X0.475000X0.250000X0*%
%ADD30RoundRect,0.250000X0.475000X-0.250000X0.475000X0.250000X-0.475000X0.250000X-0.475000X-0.250000X0*%
%ADD31RoundRect,0.250001X-1.044999X0.872499X-1.044999X-0.872499X1.044999X-0.872499X1.044999X0.872499X0*%
%ADD32RoundRect,0.250000X-0.250000X-0.475000X0.250000X-0.475000X0.250000X0.475000X-0.250000X0.475000X0*%
%ADD33RoundRect,0.250000X-1.000000X-0.900000X1.000000X-0.900000X1.000000X0.900000X-1.000000X0.900000X0*%
G04 APERTURE END LIST*
D10*
%TO.C,Y1*%
X96554659Y-72255341D03*
X100005340Y-68804660D03*
%TD*%
D11*
%TO.C,R5*%
X88744804Y-94244804D03*
X84555196Y-90055196D03*
%TD*%
D12*
%TO.C,R59*%
X92344765Y-91585235D03*
X93635235Y-90294765D03*
%TD*%
%TO.C,R51*%
X85700000Y-84410000D03*
X84409530Y-85700470D03*
%TD*%
%TO.C,R50*%
X87090000Y-85800000D03*
X85799530Y-87090470D03*
%TD*%
D13*
%TO.C,R8*%
X102960000Y-78827500D03*
X102960000Y-84752500D03*
%TD*%
D14*
%TO.C,R7*%
X96325196Y-92114804D03*
X100514804Y-87925196D03*
%TD*%
D15*
%TO.C,J4*%
X71280000Y-91370000D03*
D16*
X73820000Y-91370000D03*
X76360000Y-91370000D03*
%TD*%
D15*
%TO.C,J19*%
X135362500Y-36540000D03*
D16*
X135362500Y-39080000D03*
X135362500Y-41620000D03*
%TD*%
D15*
%TO.C,J15*%
X93000000Y-27852857D03*
D16*
X90460000Y-27852857D03*
X87920000Y-27852857D03*
%TD*%
D15*
%TO.C,J11*%
X135362500Y-76510000D03*
D16*
X135362500Y-79050000D03*
X135362500Y-81590000D03*
%TD*%
D17*
%TO.C,H2*%
X42150000Y-121060000D03*
%TD*%
D15*
%TO.C,J17*%
X72585714Y-27874286D03*
D16*
X70045714Y-27874286D03*
X67505714Y-27874286D03*
%TD*%
D15*
%TO.C,J22*%
X103207142Y-27895714D03*
D16*
X100667142Y-27895714D03*
X98127142Y-27895714D03*
%TD*%
D18*
%TO.C,C10*%
X58555000Y-117392323D03*
D19*
X58555000Y-122392323D03*
%TD*%
D20*
%TO.C,F1*%
X43227500Y-101410000D03*
X47827500Y-101410000D03*
X59127500Y-101410000D03*
X63727500Y-101410000D03*
%TD*%
D21*
%TO.C,J9*%
X132100000Y-113505000D03*
D22*
X132100000Y-108425000D03*
%TD*%
D23*
%TO.C,J6*%
X45190000Y-40540000D03*
X45190000Y-47540000D03*
D24*
X41340000Y-38120000D03*
D25*
X45660000Y-39390000D03*
X45660000Y-48690000D03*
D24*
X41340000Y-49960000D03*
%TD*%
D21*
%TO.C,J5*%
X42225000Y-108165000D03*
D22*
X42225000Y-113245000D03*
%TD*%
D15*
%TO.C,J8*%
X68080000Y-71220001D03*
D16*
X68080000Y-73760001D03*
X68080000Y-76300000D03*
X68080000Y-78840001D03*
X68080000Y-81380001D03*
X68080000Y-83920001D03*
%TD*%
D17*
%TO.C,H4*%
X42150000Y-31060000D03*
%TD*%
D15*
%TO.C,J20*%
X123621428Y-27960000D03*
D16*
X121081428Y-27960000D03*
X118541428Y-27960000D03*
%TD*%
D15*
%TO.C,J21*%
X113414285Y-27917143D03*
D16*
X110874285Y-27917143D03*
X108334285Y-27917143D03*
%TD*%
D20*
%TO.C,F2*%
X119100000Y-123410000D03*
X119100000Y-118810000D03*
X119100000Y-107510000D03*
X119100000Y-102910000D03*
%TD*%
D15*
%TO.C,J16*%
X82792857Y-27810000D03*
D16*
X80252857Y-27810000D03*
X77712857Y-27810000D03*
%TD*%
D26*
%TO.C,J7*%
X103000000Y-116740000D03*
D27*
X105500000Y-116740000D03*
X107500000Y-116740000D03*
X110000000Y-116740000D03*
D28*
X99930000Y-119450000D03*
X113070000Y-119450000D03*
%TD*%
D15*
%TO.C,J12*%
X135362500Y-66510000D03*
D16*
X135362500Y-69050000D03*
X135362500Y-71590000D03*
%TD*%
D15*
%TO.C,J18*%
X62378571Y-27831429D03*
D16*
X59838571Y-27831429D03*
X57298571Y-27831429D03*
%TD*%
D15*
%TO.C,J14*%
X135362500Y-46530000D03*
D16*
X135362500Y-49070000D03*
X135362500Y-51610000D03*
%TD*%
D15*
%TO.C,J3*%
X38925000Y-102685000D03*
D16*
X38925000Y-100145000D03*
%TD*%
D15*
%TO.C,J1*%
X77740000Y-76970001D03*
D16*
X77740000Y-79510001D03*
X77740000Y-82050000D03*
%TD*%
D15*
%TO.C,J13*%
X135362500Y-56520000D03*
D16*
X135362500Y-59060000D03*
X135362500Y-61600000D03*
%TD*%
D17*
%TO.C,H3*%
X132150000Y-31060000D03*
%TD*%
D15*
%TO.C,J2*%
X39450000Y-57880000D03*
D16*
X39450000Y-60420000D03*
X39450000Y-62960000D03*
X39450000Y-65500000D03*
%TD*%
D17*
%TO.C,H1*%
X132150000Y-121060000D03*
%TD*%
D21*
%TO.C,J10*%
X131995000Y-91795000D03*
D22*
X131995000Y-86715000D03*
%TD*%
D29*
%TO.C,C23*%
X115880000Y-61610002D03*
X115880000Y-63510000D03*
%TD*%
D30*
%TO.C,C7*%
X83156667Y-60486664D03*
X83156667Y-58586666D03*
%TD*%
D31*
%TO.C,C63*%
X119940833Y-90165000D03*
X119940833Y-96580000D03*
%TD*%
D30*
%TO.C,C19*%
X91463333Y-60483331D03*
X91463333Y-58583333D03*
%TD*%
D29*
%TO.C,C15*%
X87295000Y-54651581D03*
X87295000Y-56551579D03*
%TD*%
D30*
%TO.C,C24*%
X113620000Y-67199999D03*
X113620000Y-65300001D03*
%TD*%
D31*
%TO.C,C61*%
X109762500Y-90165000D03*
X109762500Y-96580000D03*
%TD*%
D32*
%TO.C,C38*%
X76692857Y-30810000D03*
X78592857Y-30810000D03*
%TD*%
%TO.C,C36*%
X86900000Y-30810000D03*
X88800000Y-30810000D03*
%TD*%
D30*
%TO.C,C42*%
X132140000Y-62620000D03*
X132140000Y-60720000D03*
%TD*%
D29*
%TO.C,C17*%
X91438333Y-54651581D03*
X91438333Y-56551579D03*
%TD*%
D30*
%TO.C,C25*%
X111390000Y-67199999D03*
X111390000Y-65300001D03*
%TD*%
D31*
%TO.C,C62*%
X114851667Y-90165000D03*
X114851667Y-96580000D03*
%TD*%
D29*
%TO.C,C12*%
X81080000Y-54651581D03*
X81080000Y-56551579D03*
%TD*%
D31*
%TO.C,C60*%
X125030000Y-85445000D03*
X125030000Y-91860000D03*
%TD*%
D30*
%TO.C,C20*%
X89386667Y-60489998D03*
X89386667Y-58590000D03*
%TD*%
%TO.C,C35*%
X132140000Y-82610000D03*
X132140000Y-80710000D03*
%TD*%
%TO.C,C37*%
X132140000Y-42640000D03*
X132140000Y-40740000D03*
%TD*%
D33*
%TO.C,D13*%
X114372500Y-85950000D03*
X118672500Y-85950000D03*
%TD*%
D29*
%TO.C,C18*%
X93510000Y-54651581D03*
X93510000Y-56551579D03*
%TD*%
D30*
%TO.C,C53*%
X111460000Y-86380000D03*
X111460000Y-84480000D03*
%TD*%
D32*
%TO.C,C40*%
X117521428Y-30810000D03*
X119421428Y-30810000D03*
%TD*%
%TO.C,C44*%
X56278571Y-30810000D03*
X58178571Y-30810000D03*
%TD*%
D30*
%TO.C,C22*%
X115880000Y-67199999D03*
X115880000Y-65300001D03*
%TD*%
D32*
%TO.C,C46*%
X97107142Y-30810000D03*
X99007142Y-30810000D03*
%TD*%
%TO.C,C41*%
X66485714Y-30810000D03*
X68385714Y-30810000D03*
%TD*%
D30*
%TO.C,C6*%
X85233333Y-60473331D03*
X85233333Y-58573333D03*
%TD*%
%TO.C,C39*%
X132140000Y-72610000D03*
X132140000Y-70710000D03*
%TD*%
D29*
%TO.C,C26*%
X113620000Y-61610002D03*
X113620000Y-63510000D03*
%TD*%
%TO.C,C13*%
X83151667Y-54651581D03*
X83151667Y-56551579D03*
%TD*%
D32*
%TO.C,C43*%
X107314285Y-30810000D03*
X109214285Y-30810000D03*
%TD*%
D29*
%TO.C,C16*%
X89366667Y-54651581D03*
X89366667Y-56551579D03*
%TD*%
D30*
%TO.C,C8*%
X81080000Y-60476664D03*
X81080000Y-58576666D03*
%TD*%
%TO.C,C45*%
X132140000Y-52630000D03*
X132140000Y-50730000D03*
%TD*%
D29*
%TO.C,C14*%
X85223333Y-54651581D03*
X85223333Y-56551579D03*
%TD*%
D30*
%TO.C,C21*%
X87310000Y-60479998D03*
X87310000Y-58580000D03*
%TD*%
D29*
%TO.C,C27*%
X111390000Y-61610002D03*
X111390000Y-63510000D03*
%TD*%
M02*
