%TF.GenerationSoftware,KiCad,Pcbnew,10.0.6-10.0.6~ubuntu24.04.1*%
%TF.CreationDate,2026-09-05T02:29:45+07:00*%
%TF.ProjectId,mach_robot,6d616368-5f72-46f6-926f-742e6b696361,rev?*%
%TF.SameCoordinates,Original*%
%TF.FileFunction,Soldermask,Top*%
%TF.FilePolarity,Negative*%
%FSLAX46Y46*%
G04 Gerber Fmt 4.6, Leading zero omitted, Abs format (unit mm)*
G04 Created by KiCad (PCBNEW 10.0.6-10.0.6~ubuntu24.04.1) date 2026-09-05 02:29:45*
%MOMM*%
%LPD*%
G01*
G04 APERTURE LIST*
G04 Aperture macros list*
%AMRoundRect*
0 Rectangle with rounded corners*
0 $1 Rounding radius*
0 $2 $3 $4 $5 $6 $7 $8 $9 X,Y pos of 4 corners*
0 Add a 4 corners polygon primitive as box body*
4,1,4,$2,$3,$4,$5,$6,$7,$8,$9,$2,$3,0*
0 Add four circle primitives for the rounded corners*
1,1,$1+$1,$2,$3*
1,1,$1+$1,$4,$5*
1,1,$1+$1,$6,$7*
1,1,$1+$1,$8,$9*
0 Add four rect primitives between the rounded corners*
20,1,$1+$1,$2,$3,$4,$5,0*
20,1,$1+$1,$4,$5,$6,$7,0*
20,1,$1+$1,$6,$7,$8,$9,0*
20,1,$1+$1,$8,$9,$2,$3,0*%
%AMRotRect*
0 Rectangle, with rotation*
0 The origin of the aperture is its center*
0 $1 length*
0 $2 width*
0 $3 Rotation angle, in degrees counterclockwise*
0 Add horizontal line*
21,1,$1,$2,0,0,$3*%
G04 Aperture macros list end*
%ADD10C,1.500000*%
%ADD11RoundRect,0.250000X0.132583X-0.503814X0.503814X-0.132583X-0.132583X0.503814X-0.503814X0.132583X0*%
%ADD12RoundRect,0.250000X-0.132583X0.503814X-0.503814X0.132583X0.132583X-0.503814X0.503814X-0.132583X0*%
%ADD13RotRect,2.100000X2.100000X225.000000*%
%ADD14RoundRect,0.087500X-0.238649X0.362392X-0.362392X0.238649X0.238649X-0.362392X0.362392X-0.238649X0*%
%ADD15RoundRect,0.087500X0.238649X0.362392X-0.362392X-0.238649X-0.238649X-0.362392X0.362392X0.238649X0*%
%ADD16RoundRect,0.250000X0.512652X0.159099X0.159099X0.512652X-0.512652X-0.159099X-0.159099X-0.512652X0*%
%ADD17RoundRect,0.250000X-0.159099X0.512652X-0.512652X0.159099X0.159099X-0.512652X0.512652X-0.159099X0*%
%ADD18R,1.700000X1.700000*%
%ADD19C,1.700000*%
%ADD20RoundRect,0.150000X-0.521491X0.309359X0.309359X-0.521491X0.521491X-0.309359X-0.309359X0.521491X0*%
%ADD21RoundRect,0.250000X0.262500X0.450000X-0.262500X0.450000X-0.262500X-0.450000X0.262500X-0.450000X0*%
%ADD22RoundRect,0.250000X-0.262500X-0.450000X0.262500X-0.450000X0.262500X0.450000X-0.262500X0.450000X0*%
%ADD23RoundRect,0.250000X0.475000X-0.250000X0.475000X0.250000X-0.475000X0.250000X-0.475000X-0.250000X0*%
%ADD24RoundRect,0.250000X0.250000X0.475000X-0.250000X0.475000X-0.250000X-0.475000X0.250000X-0.475000X0*%
%ADD25RoundRect,0.250000X1.500000X1.000000X-1.500000X1.000000X-1.500000X-1.000000X1.500000X-1.000000X0*%
%ADD26RoundRect,0.243750X0.456250X-0.243750X0.456250X0.243750X-0.456250X0.243750X-0.456250X-0.243750X0*%
%ADD27RoundRect,0.243750X0.243750X0.456250X-0.243750X0.456250X-0.243750X-0.456250X0.243750X-0.456250X0*%
%ADD28RoundRect,0.250000X-0.475000X0.250000X-0.475000X-0.250000X0.475000X-0.250000X0.475000X0.250000X0*%
%ADD29RoundRect,0.250000X-0.450000X0.262500X-0.450000X-0.262500X0.450000X-0.262500X0.450000X0.262500X0*%
%ADD30RoundRect,0.075000X0.521491X-0.415425X-0.415425X0.521491X-0.521491X0.415425X0.415425X-0.521491X0*%
%ADD31RoundRect,0.075000X0.521491X0.415425X0.415425X0.521491X-0.521491X-0.415425X-0.415425X-0.521491X0*%
%ADD32RoundRect,0.150000X0.512500X0.150000X-0.512500X0.150000X-0.512500X-0.150000X0.512500X-0.150000X0*%
%ADD33R,0.600000X1.550000*%
%ADD34R,3.100000X2.600000*%
%ADD35R,2.900000X5.400000*%
%ADD36RoundRect,0.250000X0.450000X-0.262500X0.450000X0.262500X-0.450000X0.262500X-0.450000X-0.262500X0*%
%ADD37C,6.400000*%
%ADD38RoundRect,0.250000X0.650000X-1.000000X0.650000X1.000000X-0.650000X1.000000X-0.650000X-1.000000X0*%
%ADD39RoundRect,0.250000X-0.750000X0.750000X-0.750000X-0.750000X0.750000X-0.750000X0.750000X0.750000X0*%
%ADD40C,2.000000*%
%ADD41C,2.300000*%
%ADD42RoundRect,0.250001X-0.872499X-1.044999X0.872499X-1.044999X0.872499X1.044999X-0.872499X1.044999X0*%
%ADD43RoundRect,0.250000X0.503814X0.132583X0.132583X0.503814X-0.503814X-0.132583X-0.132583X-0.503814X0*%
%ADD44RoundRect,0.250000X-0.250000X-0.475000X0.250000X-0.475000X0.250000X0.475000X-0.250000X0.475000X0*%
%ADD45R,2.600000X2.600000*%
%ADD46C,2.600000*%
%ADD47RoundRect,0.243750X-0.150260X0.494975X-0.494975X0.150260X0.150260X-0.494975X0.494975X-0.150260X0*%
%ADD48C,0.600000*%
%ADD49RoundRect,0.200000X-0.500000X0.200000X-0.500000X-0.200000X0.500000X-0.200000X0.500000X0.200000X0*%
%ADD50RoundRect,0.075000X-0.625000X0.075000X-0.625000X-0.075000X0.625000X-0.075000X0.625000X0.075000X0*%
%ADD51O,1.800000X0.900000*%
%ADD52O,1.500000X0.900000*%
%ADD53RoundRect,0.250000X1.000000X-1.500000X1.000000X1.500000X-1.000000X1.500000X-1.000000X-1.500000X0*%
%ADD54RoundRect,0.250001X-1.044999X0.872499X-1.044999X-0.872499X1.044999X-0.872499X1.044999X0.872499X0*%
%ADD55RoundRect,0.150000X-0.825000X-0.150000X0.825000X-0.150000X0.825000X0.150000X-0.825000X0.150000X0*%
%ADD56RoundRect,0.250000X-0.300000X2.050000X-0.300000X-2.050000X0.300000X-2.050000X0.300000X2.050000X0*%
%ADD57RoundRect,0.250002X-5.149998X4.449998X-5.149998X-4.449998X5.149998X-4.449998X5.149998X4.449998X0*%
%ADD58RoundRect,0.243750X-0.456250X0.243750X-0.456250X-0.243750X0.456250X-0.243750X0.456250X0.243750X0*%
%ADD59RoundRect,0.250000X-0.550000X-0.500000X0.550000X-0.500000X0.550000X0.500000X-0.550000X0.500000X0*%
%ADD60C,1.600000*%
%ADD61C,3.000000*%
%ADD62RoundRect,0.250000X-0.503814X-0.132583X-0.132583X-0.503814X0.503814X0.132583X0.132583X0.503814X0*%
%ADD63RoundRect,0.250000X0.159099X-0.512652X0.512652X-0.159099X-0.159099X0.512652X-0.512652X0.159099X0*%
%ADD64RoundRect,0.243750X-0.243750X-0.456250X0.243750X-0.456250X0.243750X0.456250X-0.243750X0.456250X0*%
%ADD65RoundRect,0.250000X-1.000000X1.500000X-1.000000X-1.500000X1.000000X-1.500000X1.000000X1.500000X0*%
%ADD66RoundRect,0.250000X1.400000X1.000000X-1.400000X1.000000X-1.400000X-1.000000X1.400000X-1.000000X0*%
%ADD67R,1.500000X1.500000*%
%ADD68RoundRect,0.150000X0.309359X0.521491X-0.521491X-0.309359X-0.309359X-0.521491X0.521491X0.309359X0*%
%ADD69RoundRect,0.243750X-0.494975X-0.150260X-0.150260X-0.494975X0.494975X0.150260X0.150260X0.494975X0*%
%ADD70RoundRect,0.250000X-1.400000X-1.000000X1.400000X-1.000000X1.400000X1.000000X-1.400000X1.000000X0*%
G04 APERTURE END LIST*
D10*
%TO.C,Y1*%
X96554659Y-72255341D03*
X100005340Y-68804660D03*
%TD*%
D11*
%TO.C,R63*%
X91829530Y-78790470D03*
X93120000Y-77500000D03*
%TD*%
%TO.C,R61*%
X89029530Y-75980470D03*
X90320000Y-74690000D03*
%TD*%
D12*
%TO.C,R52*%
X86965235Y-79054765D03*
X85674765Y-80345235D03*
%TD*%
%TO.C,R64*%
X85540000Y-77640000D03*
X84249530Y-78930470D03*
%TD*%
%TO.C,R62*%
X90429530Y-77390470D03*
X91720000Y-76100000D03*
%TD*%
D13*
%TO.C,U5*%
X92507557Y-83146415D03*
D14*
X94513972Y-83773972D03*
X94054353Y-84233592D03*
X93594734Y-84693211D03*
X93135114Y-85152830D03*
D15*
X91880000Y-85152830D03*
X91420380Y-84693211D03*
X90960761Y-84233592D03*
X90501142Y-83773972D03*
D14*
X90501142Y-82518858D03*
X90960761Y-82059238D03*
X91420380Y-81599619D03*
X91880000Y-81140000D03*
D15*
X93135114Y-81140000D03*
X93594734Y-81599619D03*
X94054353Y-82059238D03*
X94513972Y-82518858D03*
%TD*%
D16*
%TO.C,C1*%
X99259999Y-74960000D03*
X100603501Y-76303502D03*
%TD*%
D17*
%TO.C,C2*%
X103159999Y-74560000D03*
X104503501Y-73216498D03*
%TD*%
D11*
%TO.C,R1*%
X102955234Y-71764765D03*
X101664764Y-73055235D03*
%TD*%
D18*
%TO.C,J4*%
X71280000Y-91370000D03*
D19*
X73820000Y-91370000D03*
X76360000Y-91370000D03*
%TD*%
D17*
%TO.C,C64*%
X98491751Y-82008249D03*
X97148249Y-83351751D03*
%TD*%
D20*
%TO.C,Q3*%
X76466416Y-39259410D03*
X75122913Y-40602913D03*
X77120490Y-41256987D03*
%TD*%
D21*
%TO.C,R27*%
X94002500Y-30780000D03*
X92177500Y-30780000D03*
%TD*%
D22*
%TO.C,R11*%
X50085000Y-112527500D03*
X51910000Y-112527500D03*
%TD*%
D23*
%TO.C,C3*%
X111410000Y-71312499D03*
X111410000Y-69412501D03*
%TD*%
D22*
%TO.C,R12*%
X58887500Y-78590000D03*
X60712500Y-78590000D03*
%TD*%
D24*
%TO.C,C55*%
X65259999Y-81440000D03*
X63360001Y-81440000D03*
%TD*%
D22*
%TO.C,R42*%
X63035000Y-108892500D03*
X64860000Y-108892500D03*
%TD*%
D21*
%TO.C,R31*%
X124623928Y-30780000D03*
X122798928Y-30780000D03*
%TD*%
D25*
%TO.C,C30*%
X64850000Y-91467500D03*
X58350000Y-91467500D03*
%TD*%
D26*
%TO.C,D14*%
X134200000Y-103890000D03*
X134200000Y-102015000D03*
%TD*%
D27*
%TO.C,D2*%
X60697500Y-76105000D03*
X58822500Y-76105000D03*
%TD*%
D21*
%TO.C,R37*%
X104209642Y-30780000D03*
X102384642Y-30780000D03*
%TD*%
D12*
%TO.C,R45*%
X111470000Y-48990000D03*
X110179530Y-50280470D03*
%TD*%
D28*
%TO.C,C50*%
X75400000Y-109940000D03*
X75400000Y-111840000D03*
%TD*%
D29*
%TO.C,R9*%
X94270000Y-108105000D03*
X94270000Y-109930000D03*
%TD*%
D30*
%TO.C,U2*%
X88682342Y-71166710D03*
X89035895Y-70813157D03*
X89389449Y-70459604D03*
X89743002Y-70106050D03*
X90096555Y-69752497D03*
X90450109Y-69398943D03*
X90803662Y-69045390D03*
X91157215Y-68691837D03*
X91510769Y-68338283D03*
X91864322Y-67984730D03*
X92217876Y-67631176D03*
X92571429Y-67277623D03*
X92924982Y-66924070D03*
X93278536Y-66570516D03*
X93632089Y-66216963D03*
X93985643Y-65863410D03*
X94339196Y-65509856D03*
X94692749Y-65156303D03*
X95046303Y-64802749D03*
X95399856Y-64449196D03*
X95753410Y-64095643D03*
X96106963Y-63742089D03*
X96460516Y-63388536D03*
X96814070Y-63034982D03*
X97167623Y-62681429D03*
X97521176Y-62327876D03*
X97874730Y-61974322D03*
X98228283Y-61620769D03*
X98581837Y-61267215D03*
X98935390Y-60913662D03*
X99288943Y-60560109D03*
X99642497Y-60206555D03*
X99996050Y-59853002D03*
X100349604Y-59499449D03*
X100703157Y-59145895D03*
X101056710Y-58792342D03*
D31*
X101056710Y-56087658D03*
X100703157Y-55734105D03*
X100349604Y-55380551D03*
X99996050Y-55026998D03*
X99642497Y-54673445D03*
X99288943Y-54319891D03*
X98935390Y-53966338D03*
X98581837Y-53612785D03*
X98228283Y-53259231D03*
X97874730Y-52905678D03*
X97521176Y-52552124D03*
X97167623Y-52198571D03*
X96814070Y-51845018D03*
X96460516Y-51491464D03*
X96106963Y-51137911D03*
X95753410Y-50784357D03*
X95399856Y-50430804D03*
X95046303Y-50077251D03*
X94692749Y-49723697D03*
X94339196Y-49370144D03*
X93985643Y-49016590D03*
X93632089Y-48663037D03*
X93278536Y-48309484D03*
X92924982Y-47955930D03*
X92571429Y-47602377D03*
X92217876Y-47248824D03*
X91864322Y-46895270D03*
X91510769Y-46541717D03*
X91157215Y-46188163D03*
X90803662Y-45834610D03*
X90450109Y-45481057D03*
X90096555Y-45127503D03*
X89743002Y-44773950D03*
X89389449Y-44420396D03*
X89035895Y-44066843D03*
X88682342Y-43713290D03*
D30*
X85977658Y-43713290D03*
X85624105Y-44066843D03*
X85270551Y-44420396D03*
X84916998Y-44773950D03*
X84563445Y-45127503D03*
X84209891Y-45481057D03*
X83856338Y-45834610D03*
X83502785Y-46188163D03*
X83149231Y-46541717D03*
X82795678Y-46895270D03*
X82442124Y-47248824D03*
X82088571Y-47602377D03*
X81735018Y-47955930D03*
X81381464Y-48309484D03*
X81027911Y-48663037D03*
X80674357Y-49016590D03*
X80320804Y-49370144D03*
X79967251Y-49723697D03*
X79613697Y-50077251D03*
X79260144Y-50430804D03*
X78906590Y-50784357D03*
X78553037Y-51137911D03*
X78199484Y-51491464D03*
X77845930Y-51845018D03*
X77492377Y-52198571D03*
X77138824Y-52552124D03*
X76785270Y-52905678D03*
X76431717Y-53259231D03*
X76078163Y-53612785D03*
X75724610Y-53966338D03*
X75371057Y-54319891D03*
X75017503Y-54673445D03*
X74663950Y-55026998D03*
X74310396Y-55380551D03*
X73956843Y-55734105D03*
X73603290Y-56087658D03*
D31*
X73603290Y-58792342D03*
X73956843Y-59145895D03*
X74310396Y-59499449D03*
X74663950Y-59853002D03*
X75017503Y-60206555D03*
X75371057Y-60560109D03*
X75724610Y-60913662D03*
X76078163Y-61267215D03*
X76431717Y-61620769D03*
X76785270Y-61974322D03*
X77138824Y-62327876D03*
X77492377Y-62681429D03*
X77845930Y-63034982D03*
X78199484Y-63388536D03*
X78553037Y-63742089D03*
X78906590Y-64095643D03*
X79260144Y-64449196D03*
X79613697Y-64802749D03*
X79967251Y-65156303D03*
X80320804Y-65509856D03*
X80674357Y-65863410D03*
X81027911Y-66216963D03*
X81381464Y-66570516D03*
X81735018Y-66924070D03*
X82088571Y-67277623D03*
X82442124Y-67631176D03*
X82795678Y-67984730D03*
X83149231Y-68338283D03*
X83502785Y-68691837D03*
X83856338Y-69045390D03*
X84209891Y-69398943D03*
X84563445Y-69752497D03*
X84916998Y-70106050D03*
X85270551Y-70459604D03*
X85624105Y-70813157D03*
X85977658Y-71166710D03*
%TD*%
D18*
%TO.C,J19*%
X135362500Y-36540000D03*
D19*
X135362500Y-39080000D03*
X135362500Y-41620000D03*
%TD*%
D32*
%TO.C,U4*%
X57657500Y-44960000D03*
X57657500Y-44010000D03*
X57657500Y-43060000D03*
X55382500Y-43060000D03*
X55382500Y-44010000D03*
X55382500Y-44960000D03*
%TD*%
D33*
%TO.C,U3*%
X50102500Y-94167500D03*
X51372500Y-94167500D03*
X52642500Y-94167500D03*
X53912500Y-94167500D03*
X53912500Y-88767500D03*
X52642500Y-88767500D03*
X51372500Y-88767500D03*
X50102500Y-88767500D03*
D34*
X52007500Y-91467500D03*
%TD*%
D29*
%TO.C,R55*%
X94270000Y-104465000D03*
X94270000Y-106290000D03*
%TD*%
D11*
%TO.C,R54*%
X98204765Y-43945235D03*
X99495235Y-42654765D03*
%TD*%
D29*
%TO.C,R32*%
X132140000Y-55517500D03*
X132140000Y-57342500D03*
%TD*%
D18*
%TO.C,J15*%
X93000000Y-27852857D03*
D19*
X90460000Y-27852857D03*
X87920000Y-27852857D03*
%TD*%
D22*
%TO.C,R25*%
X102384642Y-32960000D03*
X104209642Y-32960000D03*
%TD*%
D23*
%TO.C,C54*%
X50135000Y-120710000D03*
X50135000Y-118810000D03*
%TD*%
D11*
%TO.C,R6*%
X95928039Y-41668509D03*
X97218509Y-40378039D03*
%TD*%
D35*
%TO.C,L2*%
X90650000Y-99710000D03*
X80750000Y-99710000D03*
%TD*%
D24*
%TO.C,C47*%
X44350000Y-56960000D03*
X42450000Y-56960000D03*
%TD*%
D36*
%TO.C,R3*%
X115510000Y-71255000D03*
X115510000Y-69430000D03*
%TD*%
%TO.C,R56*%
X96620000Y-106290000D03*
X96620000Y-104465000D03*
%TD*%
D18*
%TO.C,J11*%
X135362500Y-76510000D03*
D19*
X135362500Y-79050000D03*
X135362500Y-81590000D03*
%TD*%
D22*
%TO.C,R13*%
X53042500Y-78590000D03*
X54867500Y-78590000D03*
%TD*%
D37*
%TO.C,H2*%
X42150000Y-121060000D03*
%TD*%
D29*
%TO.C,R26*%
X132140000Y-75507500D03*
X132140000Y-77332500D03*
%TD*%
D22*
%TO.C,R58*%
X63377500Y-75860000D03*
X65202500Y-75860000D03*
%TD*%
D18*
%TO.C,J17*%
X72585714Y-27874286D03*
D19*
X70045714Y-27874286D03*
X67505714Y-27874286D03*
%TD*%
D16*
%TO.C,C28*%
X73191751Y-42761751D03*
X71848249Y-41418249D03*
%TD*%
D38*
%TO.C,D5*%
X95600000Y-123957500D03*
X95600000Y-119957500D03*
%TD*%
D21*
%TO.C,R34*%
X114416785Y-30780000D03*
X112591785Y-30780000D03*
%TD*%
D22*
%TO.C,R23*%
X81970357Y-32960000D03*
X83795357Y-32960000D03*
%TD*%
D18*
%TO.C,J22*%
X103207142Y-27895714D03*
D19*
X100667142Y-27895714D03*
X98127142Y-27895714D03*
%TD*%
D39*
%TO.C,C10*%
X58555000Y-117392323D03*
D40*
X58555000Y-122392323D03*
%TD*%
D41*
%TO.C,F1*%
X43227500Y-101410000D03*
X47827500Y-101410000D03*
X59127500Y-101410000D03*
X63727500Y-101410000D03*
%TD*%
D42*
%TO.C,C58*%
X127392500Y-97860000D03*
X133807500Y-97860000D03*
%TD*%
D22*
%TO.C,R15*%
X92177500Y-32960000D03*
X94002500Y-32960000D03*
%TD*%
D43*
%TO.C,R47*%
X81405235Y-42765235D03*
X80114765Y-41474765D03*
%TD*%
D22*
%TO.C,R43*%
X100787500Y-111810000D03*
X102612500Y-111810000D03*
%TD*%
D44*
%TO.C,C34*%
X94650000Y-114880000D03*
X96550000Y-114880000D03*
%TD*%
D45*
%TO.C,J9*%
X132100000Y-113505000D03*
D46*
X132100000Y-108425000D03*
%TD*%
D47*
%TO.C,D10*%
X106635826Y-50500000D03*
X105310000Y-51825826D03*
%TD*%
D43*
%TO.C,R2*%
X85405234Y-74905235D03*
X84114766Y-73614765D03*
%TD*%
D27*
%TO.C,D3*%
X51935000Y-108937500D03*
X50060000Y-108937500D03*
%TD*%
D48*
%TO.C,J6*%
X45190000Y-40540000D03*
X45190000Y-47540000D03*
D49*
X46440000Y-40540000D03*
X46440000Y-41540000D03*
D50*
X46440000Y-42790000D03*
X46440000Y-43790000D03*
X46440000Y-44290000D03*
X46440000Y-45290000D03*
D49*
X46440000Y-46540000D03*
X46440000Y-47540000D03*
X46440000Y-47540000D03*
X46440000Y-46540000D03*
D50*
X46440000Y-45790000D03*
X46440000Y-44790000D03*
X46440000Y-43290000D03*
X46440000Y-42290000D03*
D49*
X46440000Y-41540000D03*
X46440000Y-40540000D03*
D51*
X41340000Y-38120000D03*
D52*
X45660000Y-39390000D03*
X45660000Y-48690000D03*
D51*
X41340000Y-49960000D03*
%TD*%
D27*
%TO.C,D9*%
X107337500Y-111810000D03*
X105462500Y-111810000D03*
%TD*%
D35*
%TO.C,L1*%
X49690000Y-78860000D03*
X39790000Y-78860000D03*
%TD*%
D21*
%TO.C,R41*%
X109400000Y-87150000D03*
X107575000Y-87150000D03*
%TD*%
D45*
%TO.C,J5*%
X42225000Y-108165000D03*
D46*
X42225000Y-113245000D03*
%TD*%
D24*
%TO.C,C52*%
X96495000Y-98000000D03*
X94595000Y-98000000D03*
%TD*%
D53*
%TO.C,C51*%
X102400000Y-104617500D03*
X102400000Y-98117500D03*
%TD*%
D21*
%TO.C,R33*%
X73588214Y-30780000D03*
X71763214Y-30780000D03*
%TD*%
D18*
%TO.C,J8*%
X68080000Y-71220001D03*
D19*
X68080000Y-73760001D03*
X68080000Y-76300000D03*
X68080000Y-78840001D03*
X68080000Y-81380001D03*
X68080000Y-83920001D03*
%TD*%
D22*
%TO.C,R24*%
X122798928Y-32960000D03*
X124623928Y-32960000D03*
%TD*%
D37*
%TO.C,H4*%
X42150000Y-31060000D03*
%TD*%
D42*
%TO.C,C32*%
X53692500Y-83110000D03*
X60107500Y-83110000D03*
%TD*%
D29*
%TO.C,R29*%
X132140000Y-65507500D03*
X132140000Y-67332500D03*
%TD*%
D18*
%TO.C,J20*%
X123621428Y-27960000D03*
D19*
X121081428Y-27960000D03*
X118541428Y-27960000D03*
%TD*%
D54*
%TO.C,C33*%
X111150000Y-105102500D03*
X111150000Y-111517500D03*
%TD*%
D18*
%TO.C,J21*%
X113414285Y-27917143D03*
D19*
X110874285Y-27917143D03*
X108334285Y-27917143D03*
%TD*%
D22*
%TO.C,R18*%
X71763214Y-32960000D03*
X73588214Y-32960000D03*
%TD*%
D27*
%TO.C,D7*%
X109405000Y-84740000D03*
X107530000Y-84740000D03*
%TD*%
D22*
%TO.C,R57*%
X63377500Y-73710000D03*
X65202500Y-73710000D03*
%TD*%
D41*
%TO.C,F2*%
X119100000Y-123410000D03*
X119100000Y-118810000D03*
X119100000Y-107510000D03*
X119100000Y-102910000D03*
%TD*%
D11*
%TO.C,R44*%
X103694765Y-50215235D03*
X104985235Y-48924765D03*
%TD*%
D28*
%TO.C,C57*%
X125100000Y-106160000D03*
X125100000Y-108060000D03*
%TD*%
D24*
%TO.C,C56*%
X65259999Y-83800000D03*
X63360001Y-83800000D03*
%TD*%
D55*
%TO.C,Q1*%
X54875000Y-108872500D03*
X54875000Y-110142500D03*
X54875000Y-111412500D03*
X54875000Y-112682500D03*
X59825000Y-112682500D03*
X59825000Y-111412500D03*
X59825000Y-110142500D03*
X59825000Y-108872500D03*
%TD*%
D36*
%TO.C,R39*%
X51340000Y-39762500D03*
X51340000Y-37937500D03*
%TD*%
D22*
%TO.C,R19*%
X112591785Y-32960000D03*
X114416785Y-32960000D03*
%TD*%
D56*
%TO.C,U1*%
X89100000Y-110435000D03*
X87400000Y-110435000D03*
X85700000Y-110435000D03*
D57*
X85700000Y-119585000D03*
D56*
X84000000Y-110435000D03*
X82300000Y-110435000D03*
%TD*%
D58*
%TO.C,D1*%
X96665000Y-108080000D03*
X96665000Y-109955000D03*
%TD*%
D23*
%TO.C,C5*%
X62660000Y-55160000D03*
X62660000Y-53260002D03*
%TD*%
D18*
%TO.C,J16*%
X82792857Y-27810000D03*
D19*
X80252857Y-27810000D03*
X77712857Y-27810000D03*
%TD*%
D59*
%TO.C,J7*%
X103000000Y-116740000D03*
D60*
X105500000Y-116740000D03*
X107500000Y-116740000D03*
X110000000Y-116740000D03*
D61*
X99930000Y-119450000D03*
X113070000Y-119450000D03*
%TD*%
D22*
%TO.C,R10*%
X53042500Y-76060000D03*
X54867500Y-76060000D03*
%TD*%
D36*
%TO.C,R38*%
X130850000Y-103885000D03*
X130850000Y-102060000D03*
%TD*%
D29*
%TO.C,R20*%
X129700000Y-45527500D03*
X129700000Y-47352500D03*
%TD*%
D11*
%TO.C,R53*%
X99669530Y-45410470D03*
X100960000Y-44120000D03*
%TD*%
D22*
%TO.C,R4*%
X76757500Y-85050000D03*
X78582500Y-85050000D03*
%TD*%
%TO.C,R21*%
X61556071Y-32960000D03*
X63381071Y-32960000D03*
%TD*%
D18*
%TO.C,J12*%
X135362500Y-66510000D03*
D19*
X135362500Y-69050000D03*
X135362500Y-71590000D03*
%TD*%
D62*
%TO.C,R48*%
X78327678Y-37057678D03*
X79618148Y-38348148D03*
%TD*%
D18*
%TO.C,J18*%
X62378571Y-27831429D03*
D19*
X59838571Y-27831429D03*
X57298571Y-27831429D03*
%TD*%
D29*
%TO.C,R40*%
X51340000Y-48317500D03*
X51340000Y-50142500D03*
%TD*%
D24*
%TO.C,C59*%
X127250000Y-102710000D03*
X125350000Y-102710000D03*
%TD*%
D18*
%TO.C,J14*%
X135362500Y-46530000D03*
D19*
X135362500Y-49070000D03*
X135362500Y-51610000D03*
%TD*%
D18*
%TO.C,J3*%
X38925000Y-102685000D03*
D19*
X38925000Y-100145000D03*
%TD*%
D11*
%TO.C,R46*%
X106986463Y-53470470D03*
X108276933Y-52180000D03*
%TD*%
D29*
%TO.C,R14*%
X129700000Y-75507500D03*
X129700000Y-77332500D03*
%TD*%
D63*
%TO.C,C11*%
X94416758Y-40209790D03*
X95760260Y-38866288D03*
%TD*%
D64*
%TO.C,D8*%
X63010000Y-112482500D03*
X64885000Y-112482500D03*
%TD*%
D18*
%TO.C,J1*%
X77740000Y-76970001D03*
D19*
X77740000Y-79510001D03*
X77740000Y-82050000D03*
%TD*%
D65*
%TO.C,C49*%
X74100000Y-115560000D03*
X74100000Y-122060000D03*
%TD*%
D29*
%TO.C,R16*%
X129700000Y-36915000D03*
X129700000Y-38740000D03*
%TD*%
D23*
%TO.C,C31*%
X47350000Y-92417500D03*
X47350000Y-90517500D03*
%TD*%
D18*
%TO.C,J13*%
X135362500Y-56520000D03*
D19*
X135362500Y-59060000D03*
X135362500Y-61600000D03*
%TD*%
D66*
%TO.C,D6*%
X74100000Y-106110000D03*
X74100000Y-99310000D03*
%TD*%
D23*
%TO.C,C4*%
X60588333Y-55160000D03*
X60588333Y-53260002D03*
%TD*%
D29*
%TO.C,R17*%
X129700000Y-55517500D03*
X129700000Y-57342500D03*
%TD*%
D28*
%TO.C,C48*%
X72900000Y-109940000D03*
X72900000Y-111840000D03*
%TD*%
D29*
%TO.C,R22*%
X129700000Y-65507500D03*
X129700000Y-67332500D03*
%TD*%
D43*
%TO.C,R49*%
X78205235Y-45975235D03*
X76914765Y-44684765D03*
%TD*%
D37*
%TO.C,H3*%
X132150000Y-31060000D03*
%TD*%
D67*
%TO.C,SW1*%
X109950000Y-74200000D03*
X116950000Y-74200000D03*
%TD*%
D18*
%TO.C,J2*%
X39450000Y-57880000D03*
D19*
X39450000Y-60420000D03*
X39450000Y-62960000D03*
X39450000Y-65500000D03*
%TD*%
D68*
%TO.C,Q2*%
X109193503Y-47063503D03*
X107850000Y-45720000D03*
X107195926Y-47717577D03*
%TD*%
D21*
%TO.C,R30*%
X83795357Y-30780000D03*
X81970357Y-30780000D03*
%TD*%
D36*
%TO.C,R28*%
X132140000Y-38740000D03*
X132140000Y-36915000D03*
%TD*%
D37*
%TO.C,H1*%
X132150000Y-121060000D03*
%TD*%
D69*
%TO.C,D11*%
X78477087Y-43077087D03*
X79802913Y-44402913D03*
%TD*%
D29*
%TO.C,R35*%
X132140000Y-45527500D03*
X132140000Y-47352500D03*
%TD*%
D21*
%TO.C,R36*%
X63381071Y-30780000D03*
X61556071Y-30780000D03*
%TD*%
D45*
%TO.C,J10*%
X131995000Y-91795000D03*
D46*
X131995000Y-86715000D03*
%TD*%
D70*
%TO.C,D4*%
X41950000Y-88090000D03*
X41950000Y-94890000D03*
%TD*%
M02*
