%TF.GenerationSoftware,KiCad,Pcbnew,10.0.6-10.0.6~ubuntu24.04.1*%
%TF.CreationDate,2026-09-05T02:29:45+07:00*%
%TF.ProjectId,mach_robot,6d616368-5f72-46f6-926f-742e6b696361,rev?*%
%TF.SameCoordinates,Original*%
%TF.FileFunction,Legend,Bot*%
%TF.FilePolarity,Positive*%
%FSLAX46Y46*%
G04 Gerber Fmt 4.6, Leading zero omitted, Abs format (unit mm)*
G04 Created by KiCad (PCBNEW 10.0.6-10.0.6~ubuntu24.04.1) date 2026-09-05 02:29:45*
%MOMM*%
%LPD*%
G01*
G04 APERTURE LIST*
G04 Aperture macros list*
%AMRoundRect*
0 Rectangle with rounded corners*
0 $1 Rounding radius*
0 $2 $3 $4 $5 $6 $7 $8 $9 X,Y pos of 4 corners*
0 Add a 4 corners polygon primitive as box body*
4,1,4,$2,$3,$4,$5,$6,$7,$8,$9,$2,$3,0*
0 Add four circle primitives for the rounded corners*
1,1,$1+$1,$2,$3*
1,1,$1+$1,$4,$5*
1,1,$1+$1,$6,$7*
1,1,$1+$1,$8,$9*
0 Add four rect primitives between the rounded corners*
20,1,$1+$1,$2,$3,$4,$5,0*
20,1,$1+$1,$4,$5,$6,$7,0*
20,1,$1+$1,$6,$7,$8,$9,0*
20,1,$1+$1,$8,$9,$2,$3,0*%
G04 Aperture macros list end*
%ADD10C,0.150000*%
%ADD11C,0.120000*%
%ADD12C,1.500000*%
%ADD13RoundRect,0.250000X-1.263953X-0.751301X-0.751301X-1.263953X1.263953X0.751301X0.751301X1.263953X0*%
%ADD14RoundRect,0.250000X-0.132583X0.503814X-0.503814X0.132583X0.132583X-0.503814X0.503814X-0.132583X0*%
%ADD15RoundRect,0.250000X1.425000X-0.362500X1.425000X0.362500X-1.425000X0.362500X-1.425000X-0.362500X0*%
%ADD16RoundRect,0.250000X-0.751301X1.263953X-1.263953X0.751301X0.751301X-1.263953X1.263953X-0.751301X0*%
%ADD17R,1.700000X1.700000*%
%ADD18C,1.700000*%
%ADD19C,6.400000*%
%ADD20RoundRect,0.250000X-0.750000X0.750000X-0.750000X-0.750000X0.750000X-0.750000X0.750000X0.750000X0*%
%ADD21C,2.000000*%
%ADD22C,2.300000*%
%ADD23R,2.600000X2.600000*%
%ADD24C,2.600000*%
%ADD25C,0.600000*%
%ADD26O,1.800000X0.900000*%
%ADD27O,1.500000X0.900000*%
%ADD28RoundRect,0.250000X-0.550000X-0.500000X0.550000X-0.500000X0.550000X0.500000X-0.550000X0.500000X0*%
%ADD29C,1.600000*%
%ADD30C,3.000000*%
%ADD31RoundRect,0.250000X-0.475000X0.250000X-0.475000X-0.250000X0.475000X-0.250000X0.475000X0.250000X0*%
%ADD32RoundRect,0.250000X0.475000X-0.250000X0.475000X0.250000X-0.475000X0.250000X-0.475000X-0.250000X0*%
%ADD33RoundRect,0.250001X-1.044999X0.872499X-1.044999X-0.872499X1.044999X-0.872499X1.044999X0.872499X0*%
%ADD34RoundRect,0.250000X-0.250000X-0.475000X0.250000X-0.475000X0.250000X0.475000X-0.250000X0.475000X0*%
%ADD35RoundRect,0.250000X-1.000000X-0.900000X1.000000X-0.900000X1.000000X0.900000X-1.000000X0.900000X0*%
G04 APERTURE END LIST*
D10*
X84586554Y-94449147D02*
X85158973Y-94348132D01*
X84990615Y-94853208D02*
X85697721Y-94146101D01*
X85697721Y-94146101D02*
X85428347Y-93876727D01*
X85428347Y-93876727D02*
X85327332Y-93843055D01*
X85327332Y-93843055D02*
X85259989Y-93843055D01*
X85259989Y-93843055D02*
X85158973Y-93876727D01*
X85158973Y-93876727D02*
X85057958Y-93977742D01*
X85057958Y-93977742D02*
X85024286Y-94078758D01*
X85024286Y-94078758D02*
X85024286Y-94146101D01*
X85024286Y-94146101D02*
X85057958Y-94247116D01*
X85057958Y-94247116D02*
X85327332Y-94516490D01*
X84653897Y-93102277D02*
X84990615Y-93438994D01*
X84990615Y-93438994D02*
X84687569Y-93809384D01*
X84687569Y-93809384D02*
X84687569Y-93742040D01*
X84687569Y-93742040D02*
X84653897Y-93641025D01*
X84653897Y-93641025D02*
X84485538Y-93472666D01*
X84485538Y-93472666D02*
X84384523Y-93438994D01*
X84384523Y-93438994D02*
X84317180Y-93438994D01*
X84317180Y-93438994D02*
X84216164Y-93472666D01*
X84216164Y-93472666D02*
X84047806Y-93641025D01*
X84047806Y-93641025D02*
X84014134Y-93742040D01*
X84014134Y-93742040D02*
X84014134Y-93809384D01*
X84014134Y-93809384D02*
X84047806Y-93910399D01*
X84047806Y-93910399D02*
X84216164Y-94078758D01*
X84216164Y-94078758D02*
X84317180Y-94112429D01*
X84317180Y-94112429D02*
X84384523Y-94112429D01*
X92599448Y-89640310D02*
X92498433Y-89067891D01*
X93003509Y-89236249D02*
X92296402Y-88529143D01*
X92296402Y-88529143D02*
X92027028Y-88798517D01*
X92027028Y-88798517D02*
X91993356Y-88899532D01*
X91993356Y-88899532D02*
X91993356Y-88966875D01*
X91993356Y-88966875D02*
X92027028Y-89067891D01*
X92027028Y-89067891D02*
X92128043Y-89168906D01*
X92128043Y-89168906D02*
X92229059Y-89202578D01*
X92229059Y-89202578D02*
X92296402Y-89202578D01*
X92296402Y-89202578D02*
X92397417Y-89168906D01*
X92397417Y-89168906D02*
X92666791Y-88899532D01*
X91252578Y-89572967D02*
X91589295Y-89236249D01*
X91589295Y-89236249D02*
X91959685Y-89539295D01*
X91959685Y-89539295D02*
X91892341Y-89539295D01*
X91892341Y-89539295D02*
X91791326Y-89572967D01*
X91791326Y-89572967D02*
X91622967Y-89741326D01*
X91622967Y-89741326D02*
X91589295Y-89842341D01*
X91589295Y-89842341D02*
X91589295Y-89909684D01*
X91589295Y-89909684D02*
X91622967Y-90010700D01*
X91622967Y-90010700D02*
X91791326Y-90179058D01*
X91791326Y-90179058D02*
X91892341Y-90212730D01*
X91892341Y-90212730D02*
X91959685Y-90212730D01*
X91959685Y-90212730D02*
X92060700Y-90179058D01*
X92060700Y-90179058D02*
X92229059Y-90010700D01*
X92229059Y-90010700D02*
X92262730Y-89909684D01*
X92262730Y-89909684D02*
X92262730Y-89842341D01*
X91589295Y-90650463D02*
X91454608Y-90785150D01*
X91454608Y-90785150D02*
X91353593Y-90818822D01*
X91353593Y-90818822D02*
X91286249Y-90818822D01*
X91286249Y-90818822D02*
X91117891Y-90785150D01*
X91117891Y-90785150D02*
X90949532Y-90684135D01*
X90949532Y-90684135D02*
X90680158Y-90414761D01*
X90680158Y-90414761D02*
X90646486Y-90313746D01*
X90646486Y-90313746D02*
X90646486Y-90246402D01*
X90646486Y-90246402D02*
X90680158Y-90145387D01*
X90680158Y-90145387D02*
X90814845Y-90010700D01*
X90814845Y-90010700D02*
X90915860Y-89977028D01*
X90915860Y-89977028D02*
X90983204Y-89977028D01*
X90983204Y-89977028D02*
X91084219Y-90010700D01*
X91084219Y-90010700D02*
X91252578Y-90179059D01*
X91252578Y-90179059D02*
X91286249Y-90280074D01*
X91286249Y-90280074D02*
X91286249Y-90347417D01*
X91286249Y-90347417D02*
X91252578Y-90448433D01*
X91252578Y-90448433D02*
X91117891Y-90583120D01*
X91117891Y-90583120D02*
X91016875Y-90616791D01*
X91016875Y-90616791D02*
X90949532Y-90616791D01*
X90949532Y-90616791D02*
X90848517Y-90583120D01*
X84664213Y-83755545D02*
X84563198Y-83183126D01*
X85068274Y-83351484D02*
X84361167Y-82644378D01*
X84361167Y-82644378D02*
X84091793Y-82913752D01*
X84091793Y-82913752D02*
X84058121Y-83014767D01*
X84058121Y-83014767D02*
X84058121Y-83082110D01*
X84058121Y-83082110D02*
X84091793Y-83183126D01*
X84091793Y-83183126D02*
X84192808Y-83284141D01*
X84192808Y-83284141D02*
X84293824Y-83317813D01*
X84293824Y-83317813D02*
X84361167Y-83317813D01*
X84361167Y-83317813D02*
X84462182Y-83284141D01*
X84462182Y-83284141D02*
X84731556Y-83014767D01*
X83317343Y-83688202D02*
X83654060Y-83351484D01*
X83654060Y-83351484D02*
X84024450Y-83654530D01*
X84024450Y-83654530D02*
X83957106Y-83654530D01*
X83957106Y-83654530D02*
X83856091Y-83688202D01*
X83856091Y-83688202D02*
X83687732Y-83856561D01*
X83687732Y-83856561D02*
X83654060Y-83957576D01*
X83654060Y-83957576D02*
X83654060Y-84024919D01*
X83654060Y-84024919D02*
X83687732Y-84125935D01*
X83687732Y-84125935D02*
X83856091Y-84294293D01*
X83856091Y-84294293D02*
X83957106Y-84327965D01*
X83957106Y-84327965D02*
X84024450Y-84327965D01*
X84024450Y-84327965D02*
X84125465Y-84294293D01*
X84125465Y-84294293D02*
X84293824Y-84125935D01*
X84293824Y-84125935D02*
X84327495Y-84024919D01*
X84327495Y-84024919D02*
X84327495Y-83957576D01*
X83317343Y-85102416D02*
X83721404Y-84698355D01*
X83519373Y-84900385D02*
X82812266Y-84193278D01*
X82812266Y-84193278D02*
X82980625Y-84226950D01*
X82980625Y-84226950D02*
X83115312Y-84226950D01*
X83115312Y-84226950D02*
X83216327Y-84193278D01*
X88416174Y-87507036D02*
X88315159Y-86934617D01*
X88820235Y-87102975D02*
X88113128Y-86395869D01*
X88113128Y-86395869D02*
X87843754Y-86665243D01*
X87843754Y-86665243D02*
X87810082Y-86766258D01*
X87810082Y-86766258D02*
X87810082Y-86833601D01*
X87810082Y-86833601D02*
X87843754Y-86934617D01*
X87843754Y-86934617D02*
X87944769Y-87035632D01*
X87944769Y-87035632D02*
X88045785Y-87069304D01*
X88045785Y-87069304D02*
X88113128Y-87069304D01*
X88113128Y-87069304D02*
X88214143Y-87035632D01*
X88214143Y-87035632D02*
X88483517Y-86766258D01*
X87069304Y-87439693D02*
X87406021Y-87102975D01*
X87406021Y-87102975D02*
X87776411Y-87406021D01*
X87776411Y-87406021D02*
X87709067Y-87406021D01*
X87709067Y-87406021D02*
X87608052Y-87439693D01*
X87608052Y-87439693D02*
X87439693Y-87608052D01*
X87439693Y-87608052D02*
X87406021Y-87709067D01*
X87406021Y-87709067D02*
X87406021Y-87776410D01*
X87406021Y-87776410D02*
X87439693Y-87877426D01*
X87439693Y-87877426D02*
X87608052Y-88045784D01*
X87608052Y-88045784D02*
X87709067Y-88079456D01*
X87709067Y-88079456D02*
X87776411Y-88079456D01*
X87776411Y-88079456D02*
X87877426Y-88045784D01*
X87877426Y-88045784D02*
X88045785Y-87877426D01*
X88045785Y-87877426D02*
X88079456Y-87776410D01*
X88079456Y-87776410D02*
X88079456Y-87709067D01*
X86597899Y-87911098D02*
X86530556Y-87978441D01*
X86530556Y-87978441D02*
X86496884Y-88079456D01*
X86496884Y-88079456D02*
X86496884Y-88146800D01*
X86496884Y-88146800D02*
X86530556Y-88247815D01*
X86530556Y-88247815D02*
X86631571Y-88416174D01*
X86631571Y-88416174D02*
X86799930Y-88584533D01*
X86799930Y-88584533D02*
X86968288Y-88685548D01*
X86968288Y-88685548D02*
X87069304Y-88719220D01*
X87069304Y-88719220D02*
X87136647Y-88719220D01*
X87136647Y-88719220D02*
X87237662Y-88685548D01*
X87237662Y-88685548D02*
X87305006Y-88618204D01*
X87305006Y-88618204D02*
X87338678Y-88517189D01*
X87338678Y-88517189D02*
X87338678Y-88449846D01*
X87338678Y-88449846D02*
X87305006Y-88348830D01*
X87305006Y-88348830D02*
X87203991Y-88180472D01*
X87203991Y-88180472D02*
X87035632Y-88012113D01*
X87035632Y-88012113D02*
X86867273Y-87911098D01*
X86867273Y-87911098D02*
X86766258Y-87877426D01*
X86766258Y-87877426D02*
X86698914Y-87877426D01*
X86698914Y-87877426D02*
X86597899Y-87911098D01*
X96999765Y-88364063D02*
X96898750Y-87791644D01*
X97403826Y-87960002D02*
X96696719Y-87252896D01*
X96696719Y-87252896D02*
X96427345Y-87522270D01*
X96427345Y-87522270D02*
X96393673Y-87623285D01*
X96393673Y-87623285D02*
X96393673Y-87690628D01*
X96393673Y-87690628D02*
X96427345Y-87791644D01*
X96427345Y-87791644D02*
X96528360Y-87892659D01*
X96528360Y-87892659D02*
X96629376Y-87926331D01*
X96629376Y-87926331D02*
X96696719Y-87926331D01*
X96696719Y-87926331D02*
X96797734Y-87892659D01*
X96797734Y-87892659D02*
X97067108Y-87623285D01*
X96056956Y-87892659D02*
X95585551Y-88364063D01*
X95585551Y-88364063D02*
X96595704Y-88768124D01*
X118019580Y-61917143D02*
X118067200Y-61869524D01*
X118067200Y-61869524D02*
X118114819Y-61726667D01*
X118114819Y-61726667D02*
X118114819Y-61631429D01*
X118114819Y-61631429D02*
X118067200Y-61488572D01*
X118067200Y-61488572D02*
X117971961Y-61393334D01*
X117971961Y-61393334D02*
X117876723Y-61345715D01*
X117876723Y-61345715D02*
X117686247Y-61298096D01*
X117686247Y-61298096D02*
X117543390Y-61298096D01*
X117543390Y-61298096D02*
X117352914Y-61345715D01*
X117352914Y-61345715D02*
X117257676Y-61393334D01*
X117257676Y-61393334D02*
X117162438Y-61488572D01*
X117162438Y-61488572D02*
X117114819Y-61631429D01*
X117114819Y-61631429D02*
X117114819Y-61726667D01*
X117114819Y-61726667D02*
X117162438Y-61869524D01*
X117162438Y-61869524D02*
X117210057Y-61917143D01*
X117210057Y-62298096D02*
X117162438Y-62345715D01*
X117162438Y-62345715D02*
X117114819Y-62440953D01*
X117114819Y-62440953D02*
X117114819Y-62679048D01*
X117114819Y-62679048D02*
X117162438Y-62774286D01*
X117162438Y-62774286D02*
X117210057Y-62821905D01*
X117210057Y-62821905D02*
X117305295Y-62869524D01*
X117305295Y-62869524D02*
X117400533Y-62869524D01*
X117400533Y-62869524D02*
X117543390Y-62821905D01*
X117543390Y-62821905D02*
X118114819Y-62250477D01*
X118114819Y-62250477D02*
X118114819Y-62869524D01*
X117114819Y-63202858D02*
X117114819Y-63821905D01*
X117114819Y-63821905D02*
X117495771Y-63488572D01*
X117495771Y-63488572D02*
X117495771Y-63631429D01*
X117495771Y-63631429D02*
X117543390Y-63726667D01*
X117543390Y-63726667D02*
X117591009Y-63774286D01*
X117591009Y-63774286D02*
X117686247Y-63821905D01*
X117686247Y-63821905D02*
X117924342Y-63821905D01*
X117924342Y-63821905D02*
X118019580Y-63774286D01*
X118019580Y-63774286D02*
X118067200Y-63726667D01*
X118067200Y-63726667D02*
X118114819Y-63631429D01*
X118114819Y-63631429D02*
X118114819Y-63345715D01*
X118114819Y-63345715D02*
X118067200Y-63250477D01*
X118067200Y-63250477D02*
X118019580Y-63202858D01*
X83066666Y-62579580D02*
X83114285Y-62627200D01*
X83114285Y-62627200D02*
X83257142Y-62674819D01*
X83257142Y-62674819D02*
X83352380Y-62674819D01*
X83352380Y-62674819D02*
X83495237Y-62627200D01*
X83495237Y-62627200D02*
X83590475Y-62531961D01*
X83590475Y-62531961D02*
X83638094Y-62436723D01*
X83638094Y-62436723D02*
X83685713Y-62246247D01*
X83685713Y-62246247D02*
X83685713Y-62103390D01*
X83685713Y-62103390D02*
X83638094Y-61912914D01*
X83638094Y-61912914D02*
X83590475Y-61817676D01*
X83590475Y-61817676D02*
X83495237Y-61722438D01*
X83495237Y-61722438D02*
X83352380Y-61674819D01*
X83352380Y-61674819D02*
X83257142Y-61674819D01*
X83257142Y-61674819D02*
X83114285Y-61722438D01*
X83114285Y-61722438D02*
X83066666Y-61770057D01*
X82733332Y-61674819D02*
X82066666Y-61674819D01*
X82066666Y-61674819D02*
X82495237Y-62674819D01*
X120612857Y-99599580D02*
X120660476Y-99647200D01*
X120660476Y-99647200D02*
X120803333Y-99694819D01*
X120803333Y-99694819D02*
X120898571Y-99694819D01*
X120898571Y-99694819D02*
X121041428Y-99647200D01*
X121041428Y-99647200D02*
X121136666Y-99551961D01*
X121136666Y-99551961D02*
X121184285Y-99456723D01*
X121184285Y-99456723D02*
X121231904Y-99266247D01*
X121231904Y-99266247D02*
X121231904Y-99123390D01*
X121231904Y-99123390D02*
X121184285Y-98932914D01*
X121184285Y-98932914D02*
X121136666Y-98837676D01*
X121136666Y-98837676D02*
X121041428Y-98742438D01*
X121041428Y-98742438D02*
X120898571Y-98694819D01*
X120898571Y-98694819D02*
X120803333Y-98694819D01*
X120803333Y-98694819D02*
X120660476Y-98742438D01*
X120660476Y-98742438D02*
X120612857Y-98790057D01*
X119755714Y-98694819D02*
X119946190Y-98694819D01*
X119946190Y-98694819D02*
X120041428Y-98742438D01*
X120041428Y-98742438D02*
X120089047Y-98790057D01*
X120089047Y-98790057D02*
X120184285Y-98932914D01*
X120184285Y-98932914D02*
X120231904Y-99123390D01*
X120231904Y-99123390D02*
X120231904Y-99504342D01*
X120231904Y-99504342D02*
X120184285Y-99599580D01*
X120184285Y-99599580D02*
X120136666Y-99647200D01*
X120136666Y-99647200D02*
X120041428Y-99694819D01*
X120041428Y-99694819D02*
X119850952Y-99694819D01*
X119850952Y-99694819D02*
X119755714Y-99647200D01*
X119755714Y-99647200D02*
X119708095Y-99599580D01*
X119708095Y-99599580D02*
X119660476Y-99504342D01*
X119660476Y-99504342D02*
X119660476Y-99266247D01*
X119660476Y-99266247D02*
X119708095Y-99171009D01*
X119708095Y-99171009D02*
X119755714Y-99123390D01*
X119755714Y-99123390D02*
X119850952Y-99075771D01*
X119850952Y-99075771D02*
X120041428Y-99075771D01*
X120041428Y-99075771D02*
X120136666Y-99123390D01*
X120136666Y-99123390D02*
X120184285Y-99171009D01*
X120184285Y-99171009D02*
X120231904Y-99266247D01*
X119327142Y-98694819D02*
X118708095Y-98694819D01*
X118708095Y-98694819D02*
X119041428Y-99075771D01*
X119041428Y-99075771D02*
X118898571Y-99075771D01*
X118898571Y-99075771D02*
X118803333Y-99123390D01*
X118803333Y-99123390D02*
X118755714Y-99171009D01*
X118755714Y-99171009D02*
X118708095Y-99266247D01*
X118708095Y-99266247D02*
X118708095Y-99504342D01*
X118708095Y-99504342D02*
X118755714Y-99599580D01*
X118755714Y-99599580D02*
X118803333Y-99647200D01*
X118803333Y-99647200D02*
X118898571Y-99694819D01*
X118898571Y-99694819D02*
X119184285Y-99694819D01*
X119184285Y-99694819D02*
X119279523Y-99647200D01*
X119279523Y-99647200D02*
X119327142Y-99599580D01*
X93502912Y-58890473D02*
X93550532Y-58842854D01*
X93550532Y-58842854D02*
X93598151Y-58699997D01*
X93598151Y-58699997D02*
X93598151Y-58604759D01*
X93598151Y-58604759D02*
X93550532Y-58461902D01*
X93550532Y-58461902D02*
X93455293Y-58366664D01*
X93455293Y-58366664D02*
X93360055Y-58319045D01*
X93360055Y-58319045D02*
X93169579Y-58271426D01*
X93169579Y-58271426D02*
X93026722Y-58271426D01*
X93026722Y-58271426D02*
X92836246Y-58319045D01*
X92836246Y-58319045D02*
X92741008Y-58366664D01*
X92741008Y-58366664D02*
X92645770Y-58461902D01*
X92645770Y-58461902D02*
X92598151Y-58604759D01*
X92598151Y-58604759D02*
X92598151Y-58699997D01*
X92598151Y-58699997D02*
X92645770Y-58842854D01*
X92645770Y-58842854D02*
X92693389Y-58890473D01*
X93598151Y-59842854D02*
X93598151Y-59271426D01*
X93598151Y-59557140D02*
X92598151Y-59557140D01*
X92598151Y-59557140D02*
X92741008Y-59461902D01*
X92741008Y-59461902D02*
X92836246Y-59366664D01*
X92836246Y-59366664D02*
X92883865Y-59271426D01*
X93598151Y-60319045D02*
X93598151Y-60509521D01*
X93598151Y-60509521D02*
X93550532Y-60604759D01*
X93550532Y-60604759D02*
X93502912Y-60652378D01*
X93502912Y-60652378D02*
X93360055Y-60747616D01*
X93360055Y-60747616D02*
X93169579Y-60795235D01*
X93169579Y-60795235D02*
X92788627Y-60795235D01*
X92788627Y-60795235D02*
X92693389Y-60747616D01*
X92693389Y-60747616D02*
X92645770Y-60699997D01*
X92645770Y-60699997D02*
X92598151Y-60604759D01*
X92598151Y-60604759D02*
X92598151Y-60414283D01*
X92598151Y-60414283D02*
X92645770Y-60319045D01*
X92645770Y-60319045D02*
X92693389Y-60271426D01*
X92693389Y-60271426D02*
X92788627Y-60223807D01*
X92788627Y-60223807D02*
X93026722Y-60223807D01*
X93026722Y-60223807D02*
X93121960Y-60271426D01*
X93121960Y-60271426D02*
X93169579Y-60319045D01*
X93169579Y-60319045D02*
X93217198Y-60414283D01*
X93217198Y-60414283D02*
X93217198Y-60604759D01*
X93217198Y-60604759D02*
X93169579Y-60699997D01*
X93169579Y-60699997D02*
X93121960Y-60747616D01*
X93121960Y-60747616D02*
X93026722Y-60795235D01*
X87992857Y-53459580D02*
X88040476Y-53507200D01*
X88040476Y-53507200D02*
X88183333Y-53554819D01*
X88183333Y-53554819D02*
X88278571Y-53554819D01*
X88278571Y-53554819D02*
X88421428Y-53507200D01*
X88421428Y-53507200D02*
X88516666Y-53411961D01*
X88516666Y-53411961D02*
X88564285Y-53316723D01*
X88564285Y-53316723D02*
X88611904Y-53126247D01*
X88611904Y-53126247D02*
X88611904Y-52983390D01*
X88611904Y-52983390D02*
X88564285Y-52792914D01*
X88564285Y-52792914D02*
X88516666Y-52697676D01*
X88516666Y-52697676D02*
X88421428Y-52602438D01*
X88421428Y-52602438D02*
X88278571Y-52554819D01*
X88278571Y-52554819D02*
X88183333Y-52554819D01*
X88183333Y-52554819D02*
X88040476Y-52602438D01*
X88040476Y-52602438D02*
X87992857Y-52650057D01*
X87040476Y-53554819D02*
X87611904Y-53554819D01*
X87326190Y-53554819D02*
X87326190Y-52554819D01*
X87326190Y-52554819D02*
X87421428Y-52697676D01*
X87421428Y-52697676D02*
X87516666Y-52792914D01*
X87516666Y-52792914D02*
X87611904Y-52840533D01*
X86135714Y-52554819D02*
X86611904Y-52554819D01*
X86611904Y-52554819D02*
X86659523Y-53031009D01*
X86659523Y-53031009D02*
X86611904Y-52983390D01*
X86611904Y-52983390D02*
X86516666Y-52935771D01*
X86516666Y-52935771D02*
X86278571Y-52935771D01*
X86278571Y-52935771D02*
X86183333Y-52983390D01*
X86183333Y-52983390D02*
X86135714Y-53031009D01*
X86135714Y-53031009D02*
X86088095Y-53126247D01*
X86088095Y-53126247D02*
X86088095Y-53364342D01*
X86088095Y-53364342D02*
X86135714Y-53459580D01*
X86135714Y-53459580D02*
X86183333Y-53507200D01*
X86183333Y-53507200D02*
X86278571Y-53554819D01*
X86278571Y-53554819D02*
X86516666Y-53554819D01*
X86516666Y-53554819D02*
X86611904Y-53507200D01*
X86611904Y-53507200D02*
X86659523Y-53459580D01*
X114352857Y-69229580D02*
X114400476Y-69277200D01*
X114400476Y-69277200D02*
X114543333Y-69324819D01*
X114543333Y-69324819D02*
X114638571Y-69324819D01*
X114638571Y-69324819D02*
X114781428Y-69277200D01*
X114781428Y-69277200D02*
X114876666Y-69181961D01*
X114876666Y-69181961D02*
X114924285Y-69086723D01*
X114924285Y-69086723D02*
X114971904Y-68896247D01*
X114971904Y-68896247D02*
X114971904Y-68753390D01*
X114971904Y-68753390D02*
X114924285Y-68562914D01*
X114924285Y-68562914D02*
X114876666Y-68467676D01*
X114876666Y-68467676D02*
X114781428Y-68372438D01*
X114781428Y-68372438D02*
X114638571Y-68324819D01*
X114638571Y-68324819D02*
X114543333Y-68324819D01*
X114543333Y-68324819D02*
X114400476Y-68372438D01*
X114400476Y-68372438D02*
X114352857Y-68420057D01*
X113971904Y-68420057D02*
X113924285Y-68372438D01*
X113924285Y-68372438D02*
X113829047Y-68324819D01*
X113829047Y-68324819D02*
X113590952Y-68324819D01*
X113590952Y-68324819D02*
X113495714Y-68372438D01*
X113495714Y-68372438D02*
X113448095Y-68420057D01*
X113448095Y-68420057D02*
X113400476Y-68515295D01*
X113400476Y-68515295D02*
X113400476Y-68610533D01*
X113400476Y-68610533D02*
X113448095Y-68753390D01*
X113448095Y-68753390D02*
X114019523Y-69324819D01*
X114019523Y-69324819D02*
X113400476Y-69324819D01*
X112543333Y-68658152D02*
X112543333Y-69324819D01*
X112781428Y-68277200D02*
X113019523Y-68991485D01*
X113019523Y-68991485D02*
X112400476Y-68991485D01*
X110462857Y-99699580D02*
X110510476Y-99747200D01*
X110510476Y-99747200D02*
X110653333Y-99794819D01*
X110653333Y-99794819D02*
X110748571Y-99794819D01*
X110748571Y-99794819D02*
X110891428Y-99747200D01*
X110891428Y-99747200D02*
X110986666Y-99651961D01*
X110986666Y-99651961D02*
X111034285Y-99556723D01*
X111034285Y-99556723D02*
X111081904Y-99366247D01*
X111081904Y-99366247D02*
X111081904Y-99223390D01*
X111081904Y-99223390D02*
X111034285Y-99032914D01*
X111034285Y-99032914D02*
X110986666Y-98937676D01*
X110986666Y-98937676D02*
X110891428Y-98842438D01*
X110891428Y-98842438D02*
X110748571Y-98794819D01*
X110748571Y-98794819D02*
X110653333Y-98794819D01*
X110653333Y-98794819D02*
X110510476Y-98842438D01*
X110510476Y-98842438D02*
X110462857Y-98890057D01*
X109605714Y-98794819D02*
X109796190Y-98794819D01*
X109796190Y-98794819D02*
X109891428Y-98842438D01*
X109891428Y-98842438D02*
X109939047Y-98890057D01*
X109939047Y-98890057D02*
X110034285Y-99032914D01*
X110034285Y-99032914D02*
X110081904Y-99223390D01*
X110081904Y-99223390D02*
X110081904Y-99604342D01*
X110081904Y-99604342D02*
X110034285Y-99699580D01*
X110034285Y-99699580D02*
X109986666Y-99747200D01*
X109986666Y-99747200D02*
X109891428Y-99794819D01*
X109891428Y-99794819D02*
X109700952Y-99794819D01*
X109700952Y-99794819D02*
X109605714Y-99747200D01*
X109605714Y-99747200D02*
X109558095Y-99699580D01*
X109558095Y-99699580D02*
X109510476Y-99604342D01*
X109510476Y-99604342D02*
X109510476Y-99366247D01*
X109510476Y-99366247D02*
X109558095Y-99271009D01*
X109558095Y-99271009D02*
X109605714Y-99223390D01*
X109605714Y-99223390D02*
X109700952Y-99175771D01*
X109700952Y-99175771D02*
X109891428Y-99175771D01*
X109891428Y-99175771D02*
X109986666Y-99223390D01*
X109986666Y-99223390D02*
X110034285Y-99271009D01*
X110034285Y-99271009D02*
X110081904Y-99366247D01*
X108558095Y-99794819D02*
X109129523Y-99794819D01*
X108843809Y-99794819D02*
X108843809Y-98794819D01*
X108843809Y-98794819D02*
X108939047Y-98937676D01*
X108939047Y-98937676D02*
X109034285Y-99032914D01*
X109034285Y-99032914D02*
X109129523Y-99080533D01*
X78285714Y-32849580D02*
X78333333Y-32897200D01*
X78333333Y-32897200D02*
X78476190Y-32944819D01*
X78476190Y-32944819D02*
X78571428Y-32944819D01*
X78571428Y-32944819D02*
X78714285Y-32897200D01*
X78714285Y-32897200D02*
X78809523Y-32801961D01*
X78809523Y-32801961D02*
X78857142Y-32706723D01*
X78857142Y-32706723D02*
X78904761Y-32516247D01*
X78904761Y-32516247D02*
X78904761Y-32373390D01*
X78904761Y-32373390D02*
X78857142Y-32182914D01*
X78857142Y-32182914D02*
X78809523Y-32087676D01*
X78809523Y-32087676D02*
X78714285Y-31992438D01*
X78714285Y-31992438D02*
X78571428Y-31944819D01*
X78571428Y-31944819D02*
X78476190Y-31944819D01*
X78476190Y-31944819D02*
X78333333Y-31992438D01*
X78333333Y-31992438D02*
X78285714Y-32040057D01*
X77952380Y-31944819D02*
X77333333Y-31944819D01*
X77333333Y-31944819D02*
X77666666Y-32325771D01*
X77666666Y-32325771D02*
X77523809Y-32325771D01*
X77523809Y-32325771D02*
X77428571Y-32373390D01*
X77428571Y-32373390D02*
X77380952Y-32421009D01*
X77380952Y-32421009D02*
X77333333Y-32516247D01*
X77333333Y-32516247D02*
X77333333Y-32754342D01*
X77333333Y-32754342D02*
X77380952Y-32849580D01*
X77380952Y-32849580D02*
X77428571Y-32897200D01*
X77428571Y-32897200D02*
X77523809Y-32944819D01*
X77523809Y-32944819D02*
X77809523Y-32944819D01*
X77809523Y-32944819D02*
X77904761Y-32897200D01*
X77904761Y-32897200D02*
X77952380Y-32849580D01*
X76761904Y-32373390D02*
X76857142Y-32325771D01*
X76857142Y-32325771D02*
X76904761Y-32278152D01*
X76904761Y-32278152D02*
X76952380Y-32182914D01*
X76952380Y-32182914D02*
X76952380Y-32135295D01*
X76952380Y-32135295D02*
X76904761Y-32040057D01*
X76904761Y-32040057D02*
X76857142Y-31992438D01*
X76857142Y-31992438D02*
X76761904Y-31944819D01*
X76761904Y-31944819D02*
X76571428Y-31944819D01*
X76571428Y-31944819D02*
X76476190Y-31992438D01*
X76476190Y-31992438D02*
X76428571Y-32040057D01*
X76428571Y-32040057D02*
X76380952Y-32135295D01*
X76380952Y-32135295D02*
X76380952Y-32182914D01*
X76380952Y-32182914D02*
X76428571Y-32278152D01*
X76428571Y-32278152D02*
X76476190Y-32325771D01*
X76476190Y-32325771D02*
X76571428Y-32373390D01*
X76571428Y-32373390D02*
X76761904Y-32373390D01*
X76761904Y-32373390D02*
X76857142Y-32421009D01*
X76857142Y-32421009D02*
X76904761Y-32468628D01*
X76904761Y-32468628D02*
X76952380Y-32563866D01*
X76952380Y-32563866D02*
X76952380Y-32754342D01*
X76952380Y-32754342D02*
X76904761Y-32849580D01*
X76904761Y-32849580D02*
X76857142Y-32897200D01*
X76857142Y-32897200D02*
X76761904Y-32944819D01*
X76761904Y-32944819D02*
X76571428Y-32944819D01*
X76571428Y-32944819D02*
X76476190Y-32897200D01*
X76476190Y-32897200D02*
X76428571Y-32849580D01*
X76428571Y-32849580D02*
X76380952Y-32754342D01*
X76380952Y-32754342D02*
X76380952Y-32563866D01*
X76380952Y-32563866D02*
X76428571Y-32468628D01*
X76428571Y-32468628D02*
X76476190Y-32421009D01*
X76476190Y-32421009D02*
X76571428Y-32373390D01*
X88492857Y-32849580D02*
X88540476Y-32897200D01*
X88540476Y-32897200D02*
X88683333Y-32944819D01*
X88683333Y-32944819D02*
X88778571Y-32944819D01*
X88778571Y-32944819D02*
X88921428Y-32897200D01*
X88921428Y-32897200D02*
X89016666Y-32801961D01*
X89016666Y-32801961D02*
X89064285Y-32706723D01*
X89064285Y-32706723D02*
X89111904Y-32516247D01*
X89111904Y-32516247D02*
X89111904Y-32373390D01*
X89111904Y-32373390D02*
X89064285Y-32182914D01*
X89064285Y-32182914D02*
X89016666Y-32087676D01*
X89016666Y-32087676D02*
X88921428Y-31992438D01*
X88921428Y-31992438D02*
X88778571Y-31944819D01*
X88778571Y-31944819D02*
X88683333Y-31944819D01*
X88683333Y-31944819D02*
X88540476Y-31992438D01*
X88540476Y-31992438D02*
X88492857Y-32040057D01*
X88159523Y-31944819D02*
X87540476Y-31944819D01*
X87540476Y-31944819D02*
X87873809Y-32325771D01*
X87873809Y-32325771D02*
X87730952Y-32325771D01*
X87730952Y-32325771D02*
X87635714Y-32373390D01*
X87635714Y-32373390D02*
X87588095Y-32421009D01*
X87588095Y-32421009D02*
X87540476Y-32516247D01*
X87540476Y-32516247D02*
X87540476Y-32754342D01*
X87540476Y-32754342D02*
X87588095Y-32849580D01*
X87588095Y-32849580D02*
X87635714Y-32897200D01*
X87635714Y-32897200D02*
X87730952Y-32944819D01*
X87730952Y-32944819D02*
X88016666Y-32944819D01*
X88016666Y-32944819D02*
X88111904Y-32897200D01*
X88111904Y-32897200D02*
X88159523Y-32849580D01*
X86683333Y-31944819D02*
X86873809Y-31944819D01*
X86873809Y-31944819D02*
X86969047Y-31992438D01*
X86969047Y-31992438D02*
X87016666Y-32040057D01*
X87016666Y-32040057D02*
X87111904Y-32182914D01*
X87111904Y-32182914D02*
X87159523Y-32373390D01*
X87159523Y-32373390D02*
X87159523Y-32754342D01*
X87159523Y-32754342D02*
X87111904Y-32849580D01*
X87111904Y-32849580D02*
X87064285Y-32897200D01*
X87064285Y-32897200D02*
X86969047Y-32944819D01*
X86969047Y-32944819D02*
X86778571Y-32944819D01*
X86778571Y-32944819D02*
X86683333Y-32897200D01*
X86683333Y-32897200D02*
X86635714Y-32849580D01*
X86635714Y-32849580D02*
X86588095Y-32754342D01*
X86588095Y-32754342D02*
X86588095Y-32516247D01*
X86588095Y-32516247D02*
X86635714Y-32421009D01*
X86635714Y-32421009D02*
X86683333Y-32373390D01*
X86683333Y-32373390D02*
X86778571Y-32325771D01*
X86778571Y-32325771D02*
X86969047Y-32325771D01*
X86969047Y-32325771D02*
X87064285Y-32373390D01*
X87064285Y-32373390D02*
X87111904Y-32421009D01*
X87111904Y-32421009D02*
X87159523Y-32516247D01*
X134179580Y-61027142D02*
X134227200Y-60979523D01*
X134227200Y-60979523D02*
X134274819Y-60836666D01*
X134274819Y-60836666D02*
X134274819Y-60741428D01*
X134274819Y-60741428D02*
X134227200Y-60598571D01*
X134227200Y-60598571D02*
X134131961Y-60503333D01*
X134131961Y-60503333D02*
X134036723Y-60455714D01*
X134036723Y-60455714D02*
X133846247Y-60408095D01*
X133846247Y-60408095D02*
X133703390Y-60408095D01*
X133703390Y-60408095D02*
X133512914Y-60455714D01*
X133512914Y-60455714D02*
X133417676Y-60503333D01*
X133417676Y-60503333D02*
X133322438Y-60598571D01*
X133322438Y-60598571D02*
X133274819Y-60741428D01*
X133274819Y-60741428D02*
X133274819Y-60836666D01*
X133274819Y-60836666D02*
X133322438Y-60979523D01*
X133322438Y-60979523D02*
X133370057Y-61027142D01*
X133608152Y-61884285D02*
X134274819Y-61884285D01*
X133227200Y-61646190D02*
X133941485Y-61408095D01*
X133941485Y-61408095D02*
X133941485Y-62027142D01*
X133370057Y-62360476D02*
X133322438Y-62408095D01*
X133322438Y-62408095D02*
X133274819Y-62503333D01*
X133274819Y-62503333D02*
X133274819Y-62741428D01*
X133274819Y-62741428D02*
X133322438Y-62836666D01*
X133322438Y-62836666D02*
X133370057Y-62884285D01*
X133370057Y-62884285D02*
X133465295Y-62931904D01*
X133465295Y-62931904D02*
X133560533Y-62931904D01*
X133560533Y-62931904D02*
X133703390Y-62884285D01*
X133703390Y-62884285D02*
X134274819Y-62312857D01*
X134274819Y-62312857D02*
X134274819Y-62931904D01*
X94002857Y-53429580D02*
X94050476Y-53477200D01*
X94050476Y-53477200D02*
X94193333Y-53524819D01*
X94193333Y-53524819D02*
X94288571Y-53524819D01*
X94288571Y-53524819D02*
X94431428Y-53477200D01*
X94431428Y-53477200D02*
X94526666Y-53381961D01*
X94526666Y-53381961D02*
X94574285Y-53286723D01*
X94574285Y-53286723D02*
X94621904Y-53096247D01*
X94621904Y-53096247D02*
X94621904Y-52953390D01*
X94621904Y-52953390D02*
X94574285Y-52762914D01*
X94574285Y-52762914D02*
X94526666Y-52667676D01*
X94526666Y-52667676D02*
X94431428Y-52572438D01*
X94431428Y-52572438D02*
X94288571Y-52524819D01*
X94288571Y-52524819D02*
X94193333Y-52524819D01*
X94193333Y-52524819D02*
X94050476Y-52572438D01*
X94050476Y-52572438D02*
X94002857Y-52620057D01*
X93050476Y-53524819D02*
X93621904Y-53524819D01*
X93336190Y-53524819D02*
X93336190Y-52524819D01*
X93336190Y-52524819D02*
X93431428Y-52667676D01*
X93431428Y-52667676D02*
X93526666Y-52762914D01*
X93526666Y-52762914D02*
X93621904Y-52810533D01*
X92717142Y-52524819D02*
X92050476Y-52524819D01*
X92050476Y-52524819D02*
X92479047Y-53524819D01*
X109999580Y-65916665D02*
X110047200Y-65869046D01*
X110047200Y-65869046D02*
X110094819Y-65726189D01*
X110094819Y-65726189D02*
X110094819Y-65630951D01*
X110094819Y-65630951D02*
X110047200Y-65488094D01*
X110047200Y-65488094D02*
X109951961Y-65392856D01*
X109951961Y-65392856D02*
X109856723Y-65345237D01*
X109856723Y-65345237D02*
X109666247Y-65297618D01*
X109666247Y-65297618D02*
X109523390Y-65297618D01*
X109523390Y-65297618D02*
X109332914Y-65345237D01*
X109332914Y-65345237D02*
X109237676Y-65392856D01*
X109237676Y-65392856D02*
X109142438Y-65488094D01*
X109142438Y-65488094D02*
X109094819Y-65630951D01*
X109094819Y-65630951D02*
X109094819Y-65726189D01*
X109094819Y-65726189D02*
X109142438Y-65869046D01*
X109142438Y-65869046D02*
X109190057Y-65916665D01*
X109190057Y-66297618D02*
X109142438Y-66345237D01*
X109142438Y-66345237D02*
X109094819Y-66440475D01*
X109094819Y-66440475D02*
X109094819Y-66678570D01*
X109094819Y-66678570D02*
X109142438Y-66773808D01*
X109142438Y-66773808D02*
X109190057Y-66821427D01*
X109190057Y-66821427D02*
X109285295Y-66869046D01*
X109285295Y-66869046D02*
X109380533Y-66869046D01*
X109380533Y-66869046D02*
X109523390Y-66821427D01*
X109523390Y-66821427D02*
X110094819Y-66249999D01*
X110094819Y-66249999D02*
X110094819Y-66869046D01*
X109094819Y-67773808D02*
X109094819Y-67297618D01*
X109094819Y-67297618D02*
X109571009Y-67249999D01*
X109571009Y-67249999D02*
X109523390Y-67297618D01*
X109523390Y-67297618D02*
X109475771Y-67392856D01*
X109475771Y-67392856D02*
X109475771Y-67630951D01*
X109475771Y-67630951D02*
X109523390Y-67726189D01*
X109523390Y-67726189D02*
X109571009Y-67773808D01*
X109571009Y-67773808D02*
X109666247Y-67821427D01*
X109666247Y-67821427D02*
X109904342Y-67821427D01*
X109904342Y-67821427D02*
X109999580Y-67773808D01*
X109999580Y-67773808D02*
X110047200Y-67726189D01*
X110047200Y-67726189D02*
X110094819Y-67630951D01*
X110094819Y-67630951D02*
X110094819Y-67392856D01*
X110094819Y-67392856D02*
X110047200Y-67297618D01*
X110047200Y-67297618D02*
X109999580Y-67249999D01*
X115582857Y-99499580D02*
X115630476Y-99547200D01*
X115630476Y-99547200D02*
X115773333Y-99594819D01*
X115773333Y-99594819D02*
X115868571Y-99594819D01*
X115868571Y-99594819D02*
X116011428Y-99547200D01*
X116011428Y-99547200D02*
X116106666Y-99451961D01*
X116106666Y-99451961D02*
X116154285Y-99356723D01*
X116154285Y-99356723D02*
X116201904Y-99166247D01*
X116201904Y-99166247D02*
X116201904Y-99023390D01*
X116201904Y-99023390D02*
X116154285Y-98832914D01*
X116154285Y-98832914D02*
X116106666Y-98737676D01*
X116106666Y-98737676D02*
X116011428Y-98642438D01*
X116011428Y-98642438D02*
X115868571Y-98594819D01*
X115868571Y-98594819D02*
X115773333Y-98594819D01*
X115773333Y-98594819D02*
X115630476Y-98642438D01*
X115630476Y-98642438D02*
X115582857Y-98690057D01*
X114725714Y-98594819D02*
X114916190Y-98594819D01*
X114916190Y-98594819D02*
X115011428Y-98642438D01*
X115011428Y-98642438D02*
X115059047Y-98690057D01*
X115059047Y-98690057D02*
X115154285Y-98832914D01*
X115154285Y-98832914D02*
X115201904Y-99023390D01*
X115201904Y-99023390D02*
X115201904Y-99404342D01*
X115201904Y-99404342D02*
X115154285Y-99499580D01*
X115154285Y-99499580D02*
X115106666Y-99547200D01*
X115106666Y-99547200D02*
X115011428Y-99594819D01*
X115011428Y-99594819D02*
X114820952Y-99594819D01*
X114820952Y-99594819D02*
X114725714Y-99547200D01*
X114725714Y-99547200D02*
X114678095Y-99499580D01*
X114678095Y-99499580D02*
X114630476Y-99404342D01*
X114630476Y-99404342D02*
X114630476Y-99166247D01*
X114630476Y-99166247D02*
X114678095Y-99071009D01*
X114678095Y-99071009D02*
X114725714Y-99023390D01*
X114725714Y-99023390D02*
X114820952Y-98975771D01*
X114820952Y-98975771D02*
X115011428Y-98975771D01*
X115011428Y-98975771D02*
X115106666Y-99023390D01*
X115106666Y-99023390D02*
X115154285Y-99071009D01*
X115154285Y-99071009D02*
X115201904Y-99166247D01*
X114249523Y-98690057D02*
X114201904Y-98642438D01*
X114201904Y-98642438D02*
X114106666Y-98594819D01*
X114106666Y-98594819D02*
X113868571Y-98594819D01*
X113868571Y-98594819D02*
X113773333Y-98642438D01*
X113773333Y-98642438D02*
X113725714Y-98690057D01*
X113725714Y-98690057D02*
X113678095Y-98785295D01*
X113678095Y-98785295D02*
X113678095Y-98880533D01*
X113678095Y-98880533D02*
X113725714Y-99023390D01*
X113725714Y-99023390D02*
X114297142Y-99594819D01*
X114297142Y-99594819D02*
X113678095Y-99594819D01*
X79759581Y-54958722D02*
X79807201Y-54911103D01*
X79807201Y-54911103D02*
X79854820Y-54768246D01*
X79854820Y-54768246D02*
X79854820Y-54673008D01*
X79854820Y-54673008D02*
X79807201Y-54530151D01*
X79807201Y-54530151D02*
X79711962Y-54434913D01*
X79711962Y-54434913D02*
X79616724Y-54387294D01*
X79616724Y-54387294D02*
X79426248Y-54339675D01*
X79426248Y-54339675D02*
X79283391Y-54339675D01*
X79283391Y-54339675D02*
X79092915Y-54387294D01*
X79092915Y-54387294D02*
X78997677Y-54434913D01*
X78997677Y-54434913D02*
X78902439Y-54530151D01*
X78902439Y-54530151D02*
X78854820Y-54673008D01*
X78854820Y-54673008D02*
X78854820Y-54768246D01*
X78854820Y-54768246D02*
X78902439Y-54911103D01*
X78902439Y-54911103D02*
X78950058Y-54958722D01*
X79854820Y-55911103D02*
X79854820Y-55339675D01*
X79854820Y-55625389D02*
X78854820Y-55625389D01*
X78854820Y-55625389D02*
X78997677Y-55530151D01*
X78997677Y-55530151D02*
X79092915Y-55434913D01*
X79092915Y-55434913D02*
X79140534Y-55339675D01*
X78950058Y-56292056D02*
X78902439Y-56339675D01*
X78902439Y-56339675D02*
X78854820Y-56434913D01*
X78854820Y-56434913D02*
X78854820Y-56673008D01*
X78854820Y-56673008D02*
X78902439Y-56768246D01*
X78902439Y-56768246D02*
X78950058Y-56815865D01*
X78950058Y-56815865D02*
X79045296Y-56863484D01*
X79045296Y-56863484D02*
X79140534Y-56863484D01*
X79140534Y-56863484D02*
X79283391Y-56815865D01*
X79283391Y-56815865D02*
X79854820Y-56244437D01*
X79854820Y-56244437D02*
X79854820Y-56863484D01*
X125832857Y-94659580D02*
X125880476Y-94707200D01*
X125880476Y-94707200D02*
X126023333Y-94754819D01*
X126023333Y-94754819D02*
X126118571Y-94754819D01*
X126118571Y-94754819D02*
X126261428Y-94707200D01*
X126261428Y-94707200D02*
X126356666Y-94611961D01*
X126356666Y-94611961D02*
X126404285Y-94516723D01*
X126404285Y-94516723D02*
X126451904Y-94326247D01*
X126451904Y-94326247D02*
X126451904Y-94183390D01*
X126451904Y-94183390D02*
X126404285Y-93992914D01*
X126404285Y-93992914D02*
X126356666Y-93897676D01*
X126356666Y-93897676D02*
X126261428Y-93802438D01*
X126261428Y-93802438D02*
X126118571Y-93754819D01*
X126118571Y-93754819D02*
X126023333Y-93754819D01*
X126023333Y-93754819D02*
X125880476Y-93802438D01*
X125880476Y-93802438D02*
X125832857Y-93850057D01*
X124975714Y-93754819D02*
X125166190Y-93754819D01*
X125166190Y-93754819D02*
X125261428Y-93802438D01*
X125261428Y-93802438D02*
X125309047Y-93850057D01*
X125309047Y-93850057D02*
X125404285Y-93992914D01*
X125404285Y-93992914D02*
X125451904Y-94183390D01*
X125451904Y-94183390D02*
X125451904Y-94564342D01*
X125451904Y-94564342D02*
X125404285Y-94659580D01*
X125404285Y-94659580D02*
X125356666Y-94707200D01*
X125356666Y-94707200D02*
X125261428Y-94754819D01*
X125261428Y-94754819D02*
X125070952Y-94754819D01*
X125070952Y-94754819D02*
X124975714Y-94707200D01*
X124975714Y-94707200D02*
X124928095Y-94659580D01*
X124928095Y-94659580D02*
X124880476Y-94564342D01*
X124880476Y-94564342D02*
X124880476Y-94326247D01*
X124880476Y-94326247D02*
X124928095Y-94231009D01*
X124928095Y-94231009D02*
X124975714Y-94183390D01*
X124975714Y-94183390D02*
X125070952Y-94135771D01*
X125070952Y-94135771D02*
X125261428Y-94135771D01*
X125261428Y-94135771D02*
X125356666Y-94183390D01*
X125356666Y-94183390D02*
X125404285Y-94231009D01*
X125404285Y-94231009D02*
X125451904Y-94326247D01*
X124261428Y-93754819D02*
X124166190Y-93754819D01*
X124166190Y-93754819D02*
X124070952Y-93802438D01*
X124070952Y-93802438D02*
X124023333Y-93850057D01*
X124023333Y-93850057D02*
X123975714Y-93945295D01*
X123975714Y-93945295D02*
X123928095Y-94135771D01*
X123928095Y-94135771D02*
X123928095Y-94373866D01*
X123928095Y-94373866D02*
X123975714Y-94564342D01*
X123975714Y-94564342D02*
X124023333Y-94659580D01*
X124023333Y-94659580D02*
X124070952Y-94707200D01*
X124070952Y-94707200D02*
X124166190Y-94754819D01*
X124166190Y-94754819D02*
X124261428Y-94754819D01*
X124261428Y-94754819D02*
X124356666Y-94707200D01*
X124356666Y-94707200D02*
X124404285Y-94659580D01*
X124404285Y-94659580D02*
X124451904Y-94564342D01*
X124451904Y-94564342D02*
X124499523Y-94373866D01*
X124499523Y-94373866D02*
X124499523Y-94135771D01*
X124499523Y-94135771D02*
X124451904Y-93945295D01*
X124451904Y-93945295D02*
X124404285Y-93850057D01*
X124404285Y-93850057D02*
X124356666Y-93802438D01*
X124356666Y-93802438D02*
X124261428Y-93754819D01*
X90352857Y-62459580D02*
X90400476Y-62507200D01*
X90400476Y-62507200D02*
X90543333Y-62554819D01*
X90543333Y-62554819D02*
X90638571Y-62554819D01*
X90638571Y-62554819D02*
X90781428Y-62507200D01*
X90781428Y-62507200D02*
X90876666Y-62411961D01*
X90876666Y-62411961D02*
X90924285Y-62316723D01*
X90924285Y-62316723D02*
X90971904Y-62126247D01*
X90971904Y-62126247D02*
X90971904Y-61983390D01*
X90971904Y-61983390D02*
X90924285Y-61792914D01*
X90924285Y-61792914D02*
X90876666Y-61697676D01*
X90876666Y-61697676D02*
X90781428Y-61602438D01*
X90781428Y-61602438D02*
X90638571Y-61554819D01*
X90638571Y-61554819D02*
X90543333Y-61554819D01*
X90543333Y-61554819D02*
X90400476Y-61602438D01*
X90400476Y-61602438D02*
X90352857Y-61650057D01*
X89971904Y-61650057D02*
X89924285Y-61602438D01*
X89924285Y-61602438D02*
X89829047Y-61554819D01*
X89829047Y-61554819D02*
X89590952Y-61554819D01*
X89590952Y-61554819D02*
X89495714Y-61602438D01*
X89495714Y-61602438D02*
X89448095Y-61650057D01*
X89448095Y-61650057D02*
X89400476Y-61745295D01*
X89400476Y-61745295D02*
X89400476Y-61840533D01*
X89400476Y-61840533D02*
X89448095Y-61983390D01*
X89448095Y-61983390D02*
X90019523Y-62554819D01*
X90019523Y-62554819D02*
X89400476Y-62554819D01*
X88781428Y-61554819D02*
X88686190Y-61554819D01*
X88686190Y-61554819D02*
X88590952Y-61602438D01*
X88590952Y-61602438D02*
X88543333Y-61650057D01*
X88543333Y-61650057D02*
X88495714Y-61745295D01*
X88495714Y-61745295D02*
X88448095Y-61935771D01*
X88448095Y-61935771D02*
X88448095Y-62173866D01*
X88448095Y-62173866D02*
X88495714Y-62364342D01*
X88495714Y-62364342D02*
X88543333Y-62459580D01*
X88543333Y-62459580D02*
X88590952Y-62507200D01*
X88590952Y-62507200D02*
X88686190Y-62554819D01*
X88686190Y-62554819D02*
X88781428Y-62554819D01*
X88781428Y-62554819D02*
X88876666Y-62507200D01*
X88876666Y-62507200D02*
X88924285Y-62459580D01*
X88924285Y-62459580D02*
X88971904Y-62364342D01*
X88971904Y-62364342D02*
X89019523Y-62173866D01*
X89019523Y-62173866D02*
X89019523Y-61935771D01*
X89019523Y-61935771D02*
X88971904Y-61745295D01*
X88971904Y-61745295D02*
X88924285Y-61650057D01*
X88924285Y-61650057D02*
X88876666Y-61602438D01*
X88876666Y-61602438D02*
X88781428Y-61554819D01*
X134179580Y-81017142D02*
X134227200Y-80969523D01*
X134227200Y-80969523D02*
X134274819Y-80826666D01*
X134274819Y-80826666D02*
X134274819Y-80731428D01*
X134274819Y-80731428D02*
X134227200Y-80588571D01*
X134227200Y-80588571D02*
X134131961Y-80493333D01*
X134131961Y-80493333D02*
X134036723Y-80445714D01*
X134036723Y-80445714D02*
X133846247Y-80398095D01*
X133846247Y-80398095D02*
X133703390Y-80398095D01*
X133703390Y-80398095D02*
X133512914Y-80445714D01*
X133512914Y-80445714D02*
X133417676Y-80493333D01*
X133417676Y-80493333D02*
X133322438Y-80588571D01*
X133322438Y-80588571D02*
X133274819Y-80731428D01*
X133274819Y-80731428D02*
X133274819Y-80826666D01*
X133274819Y-80826666D02*
X133322438Y-80969523D01*
X133322438Y-80969523D02*
X133370057Y-81017142D01*
X133274819Y-81350476D02*
X133274819Y-81969523D01*
X133274819Y-81969523D02*
X133655771Y-81636190D01*
X133655771Y-81636190D02*
X133655771Y-81779047D01*
X133655771Y-81779047D02*
X133703390Y-81874285D01*
X133703390Y-81874285D02*
X133751009Y-81921904D01*
X133751009Y-81921904D02*
X133846247Y-81969523D01*
X133846247Y-81969523D02*
X134084342Y-81969523D01*
X134084342Y-81969523D02*
X134179580Y-81921904D01*
X134179580Y-81921904D02*
X134227200Y-81874285D01*
X134227200Y-81874285D02*
X134274819Y-81779047D01*
X134274819Y-81779047D02*
X134274819Y-81493333D01*
X134274819Y-81493333D02*
X134227200Y-81398095D01*
X134227200Y-81398095D02*
X134179580Y-81350476D01*
X133274819Y-82874285D02*
X133274819Y-82398095D01*
X133274819Y-82398095D02*
X133751009Y-82350476D01*
X133751009Y-82350476D02*
X133703390Y-82398095D01*
X133703390Y-82398095D02*
X133655771Y-82493333D01*
X133655771Y-82493333D02*
X133655771Y-82731428D01*
X133655771Y-82731428D02*
X133703390Y-82826666D01*
X133703390Y-82826666D02*
X133751009Y-82874285D01*
X133751009Y-82874285D02*
X133846247Y-82921904D01*
X133846247Y-82921904D02*
X134084342Y-82921904D01*
X134084342Y-82921904D02*
X134179580Y-82874285D01*
X134179580Y-82874285D02*
X134227200Y-82826666D01*
X134227200Y-82826666D02*
X134274819Y-82731428D01*
X134274819Y-82731428D02*
X134274819Y-82493333D01*
X134274819Y-82493333D02*
X134227200Y-82398095D01*
X134227200Y-82398095D02*
X134179580Y-82350476D01*
X134179580Y-41047142D02*
X134227200Y-40999523D01*
X134227200Y-40999523D02*
X134274819Y-40856666D01*
X134274819Y-40856666D02*
X134274819Y-40761428D01*
X134274819Y-40761428D02*
X134227200Y-40618571D01*
X134227200Y-40618571D02*
X134131961Y-40523333D01*
X134131961Y-40523333D02*
X134036723Y-40475714D01*
X134036723Y-40475714D02*
X133846247Y-40428095D01*
X133846247Y-40428095D02*
X133703390Y-40428095D01*
X133703390Y-40428095D02*
X133512914Y-40475714D01*
X133512914Y-40475714D02*
X133417676Y-40523333D01*
X133417676Y-40523333D02*
X133322438Y-40618571D01*
X133322438Y-40618571D02*
X133274819Y-40761428D01*
X133274819Y-40761428D02*
X133274819Y-40856666D01*
X133274819Y-40856666D02*
X133322438Y-40999523D01*
X133322438Y-40999523D02*
X133370057Y-41047142D01*
X133274819Y-41380476D02*
X133274819Y-41999523D01*
X133274819Y-41999523D02*
X133655771Y-41666190D01*
X133655771Y-41666190D02*
X133655771Y-41809047D01*
X133655771Y-41809047D02*
X133703390Y-41904285D01*
X133703390Y-41904285D02*
X133751009Y-41951904D01*
X133751009Y-41951904D02*
X133846247Y-41999523D01*
X133846247Y-41999523D02*
X134084342Y-41999523D01*
X134084342Y-41999523D02*
X134179580Y-41951904D01*
X134179580Y-41951904D02*
X134227200Y-41904285D01*
X134227200Y-41904285D02*
X134274819Y-41809047D01*
X134274819Y-41809047D02*
X134274819Y-41523333D01*
X134274819Y-41523333D02*
X134227200Y-41428095D01*
X134227200Y-41428095D02*
X134179580Y-41380476D01*
X133274819Y-42332857D02*
X133274819Y-42999523D01*
X133274819Y-42999523D02*
X134274819Y-42570952D01*
X117736785Y-83364819D02*
X117736785Y-82364819D01*
X117736785Y-82364819D02*
X117498690Y-82364819D01*
X117498690Y-82364819D02*
X117355833Y-82412438D01*
X117355833Y-82412438D02*
X117260595Y-82507676D01*
X117260595Y-82507676D02*
X117212976Y-82602914D01*
X117212976Y-82602914D02*
X117165357Y-82793390D01*
X117165357Y-82793390D02*
X117165357Y-82936247D01*
X117165357Y-82936247D02*
X117212976Y-83126723D01*
X117212976Y-83126723D02*
X117260595Y-83221961D01*
X117260595Y-83221961D02*
X117355833Y-83317200D01*
X117355833Y-83317200D02*
X117498690Y-83364819D01*
X117498690Y-83364819D02*
X117736785Y-83364819D01*
X116212976Y-83364819D02*
X116784404Y-83364819D01*
X116498690Y-83364819D02*
X116498690Y-82364819D01*
X116498690Y-82364819D02*
X116593928Y-82507676D01*
X116593928Y-82507676D02*
X116689166Y-82602914D01*
X116689166Y-82602914D02*
X116784404Y-82650533D01*
X115879642Y-82364819D02*
X115260595Y-82364819D01*
X115260595Y-82364819D02*
X115593928Y-82745771D01*
X115593928Y-82745771D02*
X115451071Y-82745771D01*
X115451071Y-82745771D02*
X115355833Y-82793390D01*
X115355833Y-82793390D02*
X115308214Y-82841009D01*
X115308214Y-82841009D02*
X115260595Y-82936247D01*
X115260595Y-82936247D02*
X115260595Y-83174342D01*
X115260595Y-83174342D02*
X115308214Y-83269580D01*
X115308214Y-83269580D02*
X115355833Y-83317200D01*
X115355833Y-83317200D02*
X115451071Y-83364819D01*
X115451071Y-83364819D02*
X115736785Y-83364819D01*
X115736785Y-83364819D02*
X115832023Y-83317200D01*
X115832023Y-83317200D02*
X115879642Y-83269580D01*
X95779580Y-54697469D02*
X95827200Y-54649850D01*
X95827200Y-54649850D02*
X95874819Y-54506993D01*
X95874819Y-54506993D02*
X95874819Y-54411755D01*
X95874819Y-54411755D02*
X95827200Y-54268898D01*
X95827200Y-54268898D02*
X95731961Y-54173660D01*
X95731961Y-54173660D02*
X95636723Y-54126041D01*
X95636723Y-54126041D02*
X95446247Y-54078422D01*
X95446247Y-54078422D02*
X95303390Y-54078422D01*
X95303390Y-54078422D02*
X95112914Y-54126041D01*
X95112914Y-54126041D02*
X95017676Y-54173660D01*
X95017676Y-54173660D02*
X94922438Y-54268898D01*
X94922438Y-54268898D02*
X94874819Y-54411755D01*
X94874819Y-54411755D02*
X94874819Y-54506993D01*
X94874819Y-54506993D02*
X94922438Y-54649850D01*
X94922438Y-54649850D02*
X94970057Y-54697469D01*
X95874819Y-55649850D02*
X95874819Y-55078422D01*
X95874819Y-55364136D02*
X94874819Y-55364136D01*
X94874819Y-55364136D02*
X95017676Y-55268898D01*
X95017676Y-55268898D02*
X95112914Y-55173660D01*
X95112914Y-55173660D02*
X95160533Y-55078422D01*
X95303390Y-56221279D02*
X95255771Y-56126041D01*
X95255771Y-56126041D02*
X95208152Y-56078422D01*
X95208152Y-56078422D02*
X95112914Y-56030803D01*
X95112914Y-56030803D02*
X95065295Y-56030803D01*
X95065295Y-56030803D02*
X94970057Y-56078422D01*
X94970057Y-56078422D02*
X94922438Y-56126041D01*
X94922438Y-56126041D02*
X94874819Y-56221279D01*
X94874819Y-56221279D02*
X94874819Y-56411755D01*
X94874819Y-56411755D02*
X94922438Y-56506993D01*
X94922438Y-56506993D02*
X94970057Y-56554612D01*
X94970057Y-56554612D02*
X95065295Y-56602231D01*
X95065295Y-56602231D02*
X95112914Y-56602231D01*
X95112914Y-56602231D02*
X95208152Y-56554612D01*
X95208152Y-56554612D02*
X95255771Y-56506993D01*
X95255771Y-56506993D02*
X95303390Y-56411755D01*
X95303390Y-56411755D02*
X95303390Y-56221279D01*
X95303390Y-56221279D02*
X95351009Y-56126041D01*
X95351009Y-56126041D02*
X95398628Y-56078422D01*
X95398628Y-56078422D02*
X95493866Y-56030803D01*
X95493866Y-56030803D02*
X95684342Y-56030803D01*
X95684342Y-56030803D02*
X95779580Y-56078422D01*
X95779580Y-56078422D02*
X95827200Y-56126041D01*
X95827200Y-56126041D02*
X95874819Y-56221279D01*
X95874819Y-56221279D02*
X95874819Y-56411755D01*
X95874819Y-56411755D02*
X95827200Y-56506993D01*
X95827200Y-56506993D02*
X95779580Y-56554612D01*
X95779580Y-56554612D02*
X95684342Y-56602231D01*
X95684342Y-56602231D02*
X95493866Y-56602231D01*
X95493866Y-56602231D02*
X95398628Y-56554612D01*
X95398628Y-56554612D02*
X95351009Y-56506993D01*
X95351009Y-56506993D02*
X95303390Y-56411755D01*
X112182857Y-83129580D02*
X112230476Y-83177200D01*
X112230476Y-83177200D02*
X112373333Y-83224819D01*
X112373333Y-83224819D02*
X112468571Y-83224819D01*
X112468571Y-83224819D02*
X112611428Y-83177200D01*
X112611428Y-83177200D02*
X112706666Y-83081961D01*
X112706666Y-83081961D02*
X112754285Y-82986723D01*
X112754285Y-82986723D02*
X112801904Y-82796247D01*
X112801904Y-82796247D02*
X112801904Y-82653390D01*
X112801904Y-82653390D02*
X112754285Y-82462914D01*
X112754285Y-82462914D02*
X112706666Y-82367676D01*
X112706666Y-82367676D02*
X112611428Y-82272438D01*
X112611428Y-82272438D02*
X112468571Y-82224819D01*
X112468571Y-82224819D02*
X112373333Y-82224819D01*
X112373333Y-82224819D02*
X112230476Y-82272438D01*
X112230476Y-82272438D02*
X112182857Y-82320057D01*
X111278095Y-82224819D02*
X111754285Y-82224819D01*
X111754285Y-82224819D02*
X111801904Y-82701009D01*
X111801904Y-82701009D02*
X111754285Y-82653390D01*
X111754285Y-82653390D02*
X111659047Y-82605771D01*
X111659047Y-82605771D02*
X111420952Y-82605771D01*
X111420952Y-82605771D02*
X111325714Y-82653390D01*
X111325714Y-82653390D02*
X111278095Y-82701009D01*
X111278095Y-82701009D02*
X111230476Y-82796247D01*
X111230476Y-82796247D02*
X111230476Y-83034342D01*
X111230476Y-83034342D02*
X111278095Y-83129580D01*
X111278095Y-83129580D02*
X111325714Y-83177200D01*
X111325714Y-83177200D02*
X111420952Y-83224819D01*
X111420952Y-83224819D02*
X111659047Y-83224819D01*
X111659047Y-83224819D02*
X111754285Y-83177200D01*
X111754285Y-83177200D02*
X111801904Y-83129580D01*
X110897142Y-82224819D02*
X110278095Y-82224819D01*
X110278095Y-82224819D02*
X110611428Y-82605771D01*
X110611428Y-82605771D02*
X110468571Y-82605771D01*
X110468571Y-82605771D02*
X110373333Y-82653390D01*
X110373333Y-82653390D02*
X110325714Y-82701009D01*
X110325714Y-82701009D02*
X110278095Y-82796247D01*
X110278095Y-82796247D02*
X110278095Y-83034342D01*
X110278095Y-83034342D02*
X110325714Y-83129580D01*
X110325714Y-83129580D02*
X110373333Y-83177200D01*
X110373333Y-83177200D02*
X110468571Y-83224819D01*
X110468571Y-83224819D02*
X110754285Y-83224819D01*
X110754285Y-83224819D02*
X110849523Y-83177200D01*
X110849523Y-83177200D02*
X110897142Y-83129580D01*
X119114285Y-32849580D02*
X119161904Y-32897200D01*
X119161904Y-32897200D02*
X119304761Y-32944819D01*
X119304761Y-32944819D02*
X119399999Y-32944819D01*
X119399999Y-32944819D02*
X119542856Y-32897200D01*
X119542856Y-32897200D02*
X119638094Y-32801961D01*
X119638094Y-32801961D02*
X119685713Y-32706723D01*
X119685713Y-32706723D02*
X119733332Y-32516247D01*
X119733332Y-32516247D02*
X119733332Y-32373390D01*
X119733332Y-32373390D02*
X119685713Y-32182914D01*
X119685713Y-32182914D02*
X119638094Y-32087676D01*
X119638094Y-32087676D02*
X119542856Y-31992438D01*
X119542856Y-31992438D02*
X119399999Y-31944819D01*
X119399999Y-31944819D02*
X119304761Y-31944819D01*
X119304761Y-31944819D02*
X119161904Y-31992438D01*
X119161904Y-31992438D02*
X119114285Y-32040057D01*
X118257142Y-32278152D02*
X118257142Y-32944819D01*
X118495237Y-31897200D02*
X118733332Y-32611485D01*
X118733332Y-32611485D02*
X118114285Y-32611485D01*
X117542856Y-31944819D02*
X117447618Y-31944819D01*
X117447618Y-31944819D02*
X117352380Y-31992438D01*
X117352380Y-31992438D02*
X117304761Y-32040057D01*
X117304761Y-32040057D02*
X117257142Y-32135295D01*
X117257142Y-32135295D02*
X117209523Y-32325771D01*
X117209523Y-32325771D02*
X117209523Y-32563866D01*
X117209523Y-32563866D02*
X117257142Y-32754342D01*
X117257142Y-32754342D02*
X117304761Y-32849580D01*
X117304761Y-32849580D02*
X117352380Y-32897200D01*
X117352380Y-32897200D02*
X117447618Y-32944819D01*
X117447618Y-32944819D02*
X117542856Y-32944819D01*
X117542856Y-32944819D02*
X117638094Y-32897200D01*
X117638094Y-32897200D02*
X117685713Y-32849580D01*
X117685713Y-32849580D02*
X117733332Y-32754342D01*
X117733332Y-32754342D02*
X117780951Y-32563866D01*
X117780951Y-32563866D02*
X117780951Y-32325771D01*
X117780951Y-32325771D02*
X117733332Y-32135295D01*
X117733332Y-32135295D02*
X117685713Y-32040057D01*
X117685713Y-32040057D02*
X117638094Y-31992438D01*
X117638094Y-31992438D02*
X117542856Y-31944819D01*
X57871428Y-32849580D02*
X57919047Y-32897200D01*
X57919047Y-32897200D02*
X58061904Y-32944819D01*
X58061904Y-32944819D02*
X58157142Y-32944819D01*
X58157142Y-32944819D02*
X58299999Y-32897200D01*
X58299999Y-32897200D02*
X58395237Y-32801961D01*
X58395237Y-32801961D02*
X58442856Y-32706723D01*
X58442856Y-32706723D02*
X58490475Y-32516247D01*
X58490475Y-32516247D02*
X58490475Y-32373390D01*
X58490475Y-32373390D02*
X58442856Y-32182914D01*
X58442856Y-32182914D02*
X58395237Y-32087676D01*
X58395237Y-32087676D02*
X58299999Y-31992438D01*
X58299999Y-31992438D02*
X58157142Y-31944819D01*
X58157142Y-31944819D02*
X58061904Y-31944819D01*
X58061904Y-31944819D02*
X57919047Y-31992438D01*
X57919047Y-31992438D02*
X57871428Y-32040057D01*
X57014285Y-32278152D02*
X57014285Y-32944819D01*
X57252380Y-31897200D02*
X57490475Y-32611485D01*
X57490475Y-32611485D02*
X56871428Y-32611485D01*
X56061904Y-32278152D02*
X56061904Y-32944819D01*
X56299999Y-31897200D02*
X56538094Y-32611485D01*
X56538094Y-32611485D02*
X55919047Y-32611485D01*
X117919579Y-65607142D02*
X117967199Y-65559523D01*
X117967199Y-65559523D02*
X118014818Y-65416666D01*
X118014818Y-65416666D02*
X118014818Y-65321428D01*
X118014818Y-65321428D02*
X117967199Y-65178571D01*
X117967199Y-65178571D02*
X117871960Y-65083333D01*
X117871960Y-65083333D02*
X117776722Y-65035714D01*
X117776722Y-65035714D02*
X117586246Y-64988095D01*
X117586246Y-64988095D02*
X117443389Y-64988095D01*
X117443389Y-64988095D02*
X117252913Y-65035714D01*
X117252913Y-65035714D02*
X117157675Y-65083333D01*
X117157675Y-65083333D02*
X117062437Y-65178571D01*
X117062437Y-65178571D02*
X117014818Y-65321428D01*
X117014818Y-65321428D02*
X117014818Y-65416666D01*
X117014818Y-65416666D02*
X117062437Y-65559523D01*
X117062437Y-65559523D02*
X117110056Y-65607142D01*
X117110056Y-65988095D02*
X117062437Y-66035714D01*
X117062437Y-66035714D02*
X117014818Y-66130952D01*
X117014818Y-66130952D02*
X117014818Y-66369047D01*
X117014818Y-66369047D02*
X117062437Y-66464285D01*
X117062437Y-66464285D02*
X117110056Y-66511904D01*
X117110056Y-66511904D02*
X117205294Y-66559523D01*
X117205294Y-66559523D02*
X117300532Y-66559523D01*
X117300532Y-66559523D02*
X117443389Y-66511904D01*
X117443389Y-66511904D02*
X118014818Y-65940476D01*
X118014818Y-65940476D02*
X118014818Y-66559523D01*
X117110056Y-66940476D02*
X117062437Y-66988095D01*
X117062437Y-66988095D02*
X117014818Y-67083333D01*
X117014818Y-67083333D02*
X117014818Y-67321428D01*
X117014818Y-67321428D02*
X117062437Y-67416666D01*
X117062437Y-67416666D02*
X117110056Y-67464285D01*
X117110056Y-67464285D02*
X117205294Y-67511904D01*
X117205294Y-67511904D02*
X117300532Y-67511904D01*
X117300532Y-67511904D02*
X117443389Y-67464285D01*
X117443389Y-67464285D02*
X118014818Y-66892857D01*
X118014818Y-66892857D02*
X118014818Y-67511904D01*
X98699999Y-32849580D02*
X98747618Y-32897200D01*
X98747618Y-32897200D02*
X98890475Y-32944819D01*
X98890475Y-32944819D02*
X98985713Y-32944819D01*
X98985713Y-32944819D02*
X99128570Y-32897200D01*
X99128570Y-32897200D02*
X99223808Y-32801961D01*
X99223808Y-32801961D02*
X99271427Y-32706723D01*
X99271427Y-32706723D02*
X99319046Y-32516247D01*
X99319046Y-32516247D02*
X99319046Y-32373390D01*
X99319046Y-32373390D02*
X99271427Y-32182914D01*
X99271427Y-32182914D02*
X99223808Y-32087676D01*
X99223808Y-32087676D02*
X99128570Y-31992438D01*
X99128570Y-31992438D02*
X98985713Y-31944819D01*
X98985713Y-31944819D02*
X98890475Y-31944819D01*
X98890475Y-31944819D02*
X98747618Y-31992438D01*
X98747618Y-31992438D02*
X98699999Y-32040057D01*
X97842856Y-32278152D02*
X97842856Y-32944819D01*
X98080951Y-31897200D02*
X98319046Y-32611485D01*
X98319046Y-32611485D02*
X97699999Y-32611485D01*
X96890475Y-31944819D02*
X97080951Y-31944819D01*
X97080951Y-31944819D02*
X97176189Y-31992438D01*
X97176189Y-31992438D02*
X97223808Y-32040057D01*
X97223808Y-32040057D02*
X97319046Y-32182914D01*
X97319046Y-32182914D02*
X97366665Y-32373390D01*
X97366665Y-32373390D02*
X97366665Y-32754342D01*
X97366665Y-32754342D02*
X97319046Y-32849580D01*
X97319046Y-32849580D02*
X97271427Y-32897200D01*
X97271427Y-32897200D02*
X97176189Y-32944819D01*
X97176189Y-32944819D02*
X96985713Y-32944819D01*
X96985713Y-32944819D02*
X96890475Y-32897200D01*
X96890475Y-32897200D02*
X96842856Y-32849580D01*
X96842856Y-32849580D02*
X96795237Y-32754342D01*
X96795237Y-32754342D02*
X96795237Y-32516247D01*
X96795237Y-32516247D02*
X96842856Y-32421009D01*
X96842856Y-32421009D02*
X96890475Y-32373390D01*
X96890475Y-32373390D02*
X96985713Y-32325771D01*
X96985713Y-32325771D02*
X97176189Y-32325771D01*
X97176189Y-32325771D02*
X97271427Y-32373390D01*
X97271427Y-32373390D02*
X97319046Y-32421009D01*
X97319046Y-32421009D02*
X97366665Y-32516247D01*
X68078571Y-32849580D02*
X68126190Y-32897200D01*
X68126190Y-32897200D02*
X68269047Y-32944819D01*
X68269047Y-32944819D02*
X68364285Y-32944819D01*
X68364285Y-32944819D02*
X68507142Y-32897200D01*
X68507142Y-32897200D02*
X68602380Y-32801961D01*
X68602380Y-32801961D02*
X68649999Y-32706723D01*
X68649999Y-32706723D02*
X68697618Y-32516247D01*
X68697618Y-32516247D02*
X68697618Y-32373390D01*
X68697618Y-32373390D02*
X68649999Y-32182914D01*
X68649999Y-32182914D02*
X68602380Y-32087676D01*
X68602380Y-32087676D02*
X68507142Y-31992438D01*
X68507142Y-31992438D02*
X68364285Y-31944819D01*
X68364285Y-31944819D02*
X68269047Y-31944819D01*
X68269047Y-31944819D02*
X68126190Y-31992438D01*
X68126190Y-31992438D02*
X68078571Y-32040057D01*
X67221428Y-32278152D02*
X67221428Y-32944819D01*
X67459523Y-31897200D02*
X67697618Y-32611485D01*
X67697618Y-32611485D02*
X67078571Y-32611485D01*
X66173809Y-32944819D02*
X66745237Y-32944819D01*
X66459523Y-32944819D02*
X66459523Y-31944819D01*
X66459523Y-31944819D02*
X66554761Y-32087676D01*
X66554761Y-32087676D02*
X66649999Y-32182914D01*
X66649999Y-32182914D02*
X66745237Y-32230533D01*
X84996666Y-62509580D02*
X85044285Y-62557200D01*
X85044285Y-62557200D02*
X85187142Y-62604819D01*
X85187142Y-62604819D02*
X85282380Y-62604819D01*
X85282380Y-62604819D02*
X85425237Y-62557200D01*
X85425237Y-62557200D02*
X85520475Y-62461961D01*
X85520475Y-62461961D02*
X85568094Y-62366723D01*
X85568094Y-62366723D02*
X85615713Y-62176247D01*
X85615713Y-62176247D02*
X85615713Y-62033390D01*
X85615713Y-62033390D02*
X85568094Y-61842914D01*
X85568094Y-61842914D02*
X85520475Y-61747676D01*
X85520475Y-61747676D02*
X85425237Y-61652438D01*
X85425237Y-61652438D02*
X85282380Y-61604819D01*
X85282380Y-61604819D02*
X85187142Y-61604819D01*
X85187142Y-61604819D02*
X85044285Y-61652438D01*
X85044285Y-61652438D02*
X84996666Y-61700057D01*
X84139523Y-61604819D02*
X84329999Y-61604819D01*
X84329999Y-61604819D02*
X84425237Y-61652438D01*
X84425237Y-61652438D02*
X84472856Y-61700057D01*
X84472856Y-61700057D02*
X84568094Y-61842914D01*
X84568094Y-61842914D02*
X84615713Y-62033390D01*
X84615713Y-62033390D02*
X84615713Y-62414342D01*
X84615713Y-62414342D02*
X84568094Y-62509580D01*
X84568094Y-62509580D02*
X84520475Y-62557200D01*
X84520475Y-62557200D02*
X84425237Y-62604819D01*
X84425237Y-62604819D02*
X84234761Y-62604819D01*
X84234761Y-62604819D02*
X84139523Y-62557200D01*
X84139523Y-62557200D02*
X84091904Y-62509580D01*
X84091904Y-62509580D02*
X84044285Y-62414342D01*
X84044285Y-62414342D02*
X84044285Y-62176247D01*
X84044285Y-62176247D02*
X84091904Y-62081009D01*
X84091904Y-62081009D02*
X84139523Y-62033390D01*
X84139523Y-62033390D02*
X84234761Y-61985771D01*
X84234761Y-61985771D02*
X84425237Y-61985771D01*
X84425237Y-61985771D02*
X84520475Y-62033390D01*
X84520475Y-62033390D02*
X84568094Y-62081009D01*
X84568094Y-62081009D02*
X84615713Y-62176247D01*
X134179580Y-71017142D02*
X134227200Y-70969523D01*
X134227200Y-70969523D02*
X134274819Y-70826666D01*
X134274819Y-70826666D02*
X134274819Y-70731428D01*
X134274819Y-70731428D02*
X134227200Y-70588571D01*
X134227200Y-70588571D02*
X134131961Y-70493333D01*
X134131961Y-70493333D02*
X134036723Y-70445714D01*
X134036723Y-70445714D02*
X133846247Y-70398095D01*
X133846247Y-70398095D02*
X133703390Y-70398095D01*
X133703390Y-70398095D02*
X133512914Y-70445714D01*
X133512914Y-70445714D02*
X133417676Y-70493333D01*
X133417676Y-70493333D02*
X133322438Y-70588571D01*
X133322438Y-70588571D02*
X133274819Y-70731428D01*
X133274819Y-70731428D02*
X133274819Y-70826666D01*
X133274819Y-70826666D02*
X133322438Y-70969523D01*
X133322438Y-70969523D02*
X133370057Y-71017142D01*
X133274819Y-71350476D02*
X133274819Y-71969523D01*
X133274819Y-71969523D02*
X133655771Y-71636190D01*
X133655771Y-71636190D02*
X133655771Y-71779047D01*
X133655771Y-71779047D02*
X133703390Y-71874285D01*
X133703390Y-71874285D02*
X133751009Y-71921904D01*
X133751009Y-71921904D02*
X133846247Y-71969523D01*
X133846247Y-71969523D02*
X134084342Y-71969523D01*
X134084342Y-71969523D02*
X134179580Y-71921904D01*
X134179580Y-71921904D02*
X134227200Y-71874285D01*
X134227200Y-71874285D02*
X134274819Y-71779047D01*
X134274819Y-71779047D02*
X134274819Y-71493333D01*
X134274819Y-71493333D02*
X134227200Y-71398095D01*
X134227200Y-71398095D02*
X134179580Y-71350476D01*
X134274819Y-72445714D02*
X134274819Y-72636190D01*
X134274819Y-72636190D02*
X134227200Y-72731428D01*
X134227200Y-72731428D02*
X134179580Y-72779047D01*
X134179580Y-72779047D02*
X134036723Y-72874285D01*
X134036723Y-72874285D02*
X133846247Y-72921904D01*
X133846247Y-72921904D02*
X133465295Y-72921904D01*
X133465295Y-72921904D02*
X133370057Y-72874285D01*
X133370057Y-72874285D02*
X133322438Y-72826666D01*
X133322438Y-72826666D02*
X133274819Y-72731428D01*
X133274819Y-72731428D02*
X133274819Y-72540952D01*
X133274819Y-72540952D02*
X133322438Y-72445714D01*
X133322438Y-72445714D02*
X133370057Y-72398095D01*
X133370057Y-72398095D02*
X133465295Y-72350476D01*
X133465295Y-72350476D02*
X133703390Y-72350476D01*
X133703390Y-72350476D02*
X133798628Y-72398095D01*
X133798628Y-72398095D02*
X133846247Y-72445714D01*
X133846247Y-72445714D02*
X133893866Y-72540952D01*
X133893866Y-72540952D02*
X133893866Y-72731428D01*
X133893866Y-72731428D02*
X133846247Y-72826666D01*
X133846247Y-72826666D02*
X133798628Y-72874285D01*
X133798628Y-72874285D02*
X133703390Y-72921904D01*
X114272857Y-60409580D02*
X114320476Y-60457200D01*
X114320476Y-60457200D02*
X114463333Y-60504819D01*
X114463333Y-60504819D02*
X114558571Y-60504819D01*
X114558571Y-60504819D02*
X114701428Y-60457200D01*
X114701428Y-60457200D02*
X114796666Y-60361961D01*
X114796666Y-60361961D02*
X114844285Y-60266723D01*
X114844285Y-60266723D02*
X114891904Y-60076247D01*
X114891904Y-60076247D02*
X114891904Y-59933390D01*
X114891904Y-59933390D02*
X114844285Y-59742914D01*
X114844285Y-59742914D02*
X114796666Y-59647676D01*
X114796666Y-59647676D02*
X114701428Y-59552438D01*
X114701428Y-59552438D02*
X114558571Y-59504819D01*
X114558571Y-59504819D02*
X114463333Y-59504819D01*
X114463333Y-59504819D02*
X114320476Y-59552438D01*
X114320476Y-59552438D02*
X114272857Y-59600057D01*
X113891904Y-59600057D02*
X113844285Y-59552438D01*
X113844285Y-59552438D02*
X113749047Y-59504819D01*
X113749047Y-59504819D02*
X113510952Y-59504819D01*
X113510952Y-59504819D02*
X113415714Y-59552438D01*
X113415714Y-59552438D02*
X113368095Y-59600057D01*
X113368095Y-59600057D02*
X113320476Y-59695295D01*
X113320476Y-59695295D02*
X113320476Y-59790533D01*
X113320476Y-59790533D02*
X113368095Y-59933390D01*
X113368095Y-59933390D02*
X113939523Y-60504819D01*
X113939523Y-60504819D02*
X113320476Y-60504819D01*
X112463333Y-59504819D02*
X112653809Y-59504819D01*
X112653809Y-59504819D02*
X112749047Y-59552438D01*
X112749047Y-59552438D02*
X112796666Y-59600057D01*
X112796666Y-59600057D02*
X112891904Y-59742914D01*
X112891904Y-59742914D02*
X112939523Y-59933390D01*
X112939523Y-59933390D02*
X112939523Y-60314342D01*
X112939523Y-60314342D02*
X112891904Y-60409580D01*
X112891904Y-60409580D02*
X112844285Y-60457200D01*
X112844285Y-60457200D02*
X112749047Y-60504819D01*
X112749047Y-60504819D02*
X112558571Y-60504819D01*
X112558571Y-60504819D02*
X112463333Y-60457200D01*
X112463333Y-60457200D02*
X112415714Y-60409580D01*
X112415714Y-60409580D02*
X112368095Y-60314342D01*
X112368095Y-60314342D02*
X112368095Y-60076247D01*
X112368095Y-60076247D02*
X112415714Y-59981009D01*
X112415714Y-59981009D02*
X112463333Y-59933390D01*
X112463333Y-59933390D02*
X112558571Y-59885771D01*
X112558571Y-59885771D02*
X112749047Y-59885771D01*
X112749047Y-59885771D02*
X112844285Y-59933390D01*
X112844285Y-59933390D02*
X112891904Y-59981009D01*
X112891904Y-59981009D02*
X112939523Y-60076247D01*
X82352857Y-53439580D02*
X82400476Y-53487200D01*
X82400476Y-53487200D02*
X82543333Y-53534819D01*
X82543333Y-53534819D02*
X82638571Y-53534819D01*
X82638571Y-53534819D02*
X82781428Y-53487200D01*
X82781428Y-53487200D02*
X82876666Y-53391961D01*
X82876666Y-53391961D02*
X82924285Y-53296723D01*
X82924285Y-53296723D02*
X82971904Y-53106247D01*
X82971904Y-53106247D02*
X82971904Y-52963390D01*
X82971904Y-52963390D02*
X82924285Y-52772914D01*
X82924285Y-52772914D02*
X82876666Y-52677676D01*
X82876666Y-52677676D02*
X82781428Y-52582438D01*
X82781428Y-52582438D02*
X82638571Y-52534819D01*
X82638571Y-52534819D02*
X82543333Y-52534819D01*
X82543333Y-52534819D02*
X82400476Y-52582438D01*
X82400476Y-52582438D02*
X82352857Y-52630057D01*
X81400476Y-53534819D02*
X81971904Y-53534819D01*
X81686190Y-53534819D02*
X81686190Y-52534819D01*
X81686190Y-52534819D02*
X81781428Y-52677676D01*
X81781428Y-52677676D02*
X81876666Y-52772914D01*
X81876666Y-52772914D02*
X81971904Y-52820533D01*
X81067142Y-52534819D02*
X80448095Y-52534819D01*
X80448095Y-52534819D02*
X80781428Y-52915771D01*
X80781428Y-52915771D02*
X80638571Y-52915771D01*
X80638571Y-52915771D02*
X80543333Y-52963390D01*
X80543333Y-52963390D02*
X80495714Y-53011009D01*
X80495714Y-53011009D02*
X80448095Y-53106247D01*
X80448095Y-53106247D02*
X80448095Y-53344342D01*
X80448095Y-53344342D02*
X80495714Y-53439580D01*
X80495714Y-53439580D02*
X80543333Y-53487200D01*
X80543333Y-53487200D02*
X80638571Y-53534819D01*
X80638571Y-53534819D02*
X80924285Y-53534819D01*
X80924285Y-53534819D02*
X81019523Y-53487200D01*
X81019523Y-53487200D02*
X81067142Y-53439580D01*
X108907142Y-32849580D02*
X108954761Y-32897200D01*
X108954761Y-32897200D02*
X109097618Y-32944819D01*
X109097618Y-32944819D02*
X109192856Y-32944819D01*
X109192856Y-32944819D02*
X109335713Y-32897200D01*
X109335713Y-32897200D02*
X109430951Y-32801961D01*
X109430951Y-32801961D02*
X109478570Y-32706723D01*
X109478570Y-32706723D02*
X109526189Y-32516247D01*
X109526189Y-32516247D02*
X109526189Y-32373390D01*
X109526189Y-32373390D02*
X109478570Y-32182914D01*
X109478570Y-32182914D02*
X109430951Y-32087676D01*
X109430951Y-32087676D02*
X109335713Y-31992438D01*
X109335713Y-31992438D02*
X109192856Y-31944819D01*
X109192856Y-31944819D02*
X109097618Y-31944819D01*
X109097618Y-31944819D02*
X108954761Y-31992438D01*
X108954761Y-31992438D02*
X108907142Y-32040057D01*
X108049999Y-32278152D02*
X108049999Y-32944819D01*
X108288094Y-31897200D02*
X108526189Y-32611485D01*
X108526189Y-32611485D02*
X107907142Y-32611485D01*
X107621427Y-31944819D02*
X107002380Y-31944819D01*
X107002380Y-31944819D02*
X107335713Y-32325771D01*
X107335713Y-32325771D02*
X107192856Y-32325771D01*
X107192856Y-32325771D02*
X107097618Y-32373390D01*
X107097618Y-32373390D02*
X107049999Y-32421009D01*
X107049999Y-32421009D02*
X107002380Y-32516247D01*
X107002380Y-32516247D02*
X107002380Y-32754342D01*
X107002380Y-32754342D02*
X107049999Y-32849580D01*
X107049999Y-32849580D02*
X107097618Y-32897200D01*
X107097618Y-32897200D02*
X107192856Y-32944819D01*
X107192856Y-32944819D02*
X107478570Y-32944819D01*
X107478570Y-32944819D02*
X107573808Y-32897200D01*
X107573808Y-32897200D02*
X107621427Y-32849580D01*
X90902857Y-53419580D02*
X90950476Y-53467200D01*
X90950476Y-53467200D02*
X91093333Y-53514819D01*
X91093333Y-53514819D02*
X91188571Y-53514819D01*
X91188571Y-53514819D02*
X91331428Y-53467200D01*
X91331428Y-53467200D02*
X91426666Y-53371961D01*
X91426666Y-53371961D02*
X91474285Y-53276723D01*
X91474285Y-53276723D02*
X91521904Y-53086247D01*
X91521904Y-53086247D02*
X91521904Y-52943390D01*
X91521904Y-52943390D02*
X91474285Y-52752914D01*
X91474285Y-52752914D02*
X91426666Y-52657676D01*
X91426666Y-52657676D02*
X91331428Y-52562438D01*
X91331428Y-52562438D02*
X91188571Y-52514819D01*
X91188571Y-52514819D02*
X91093333Y-52514819D01*
X91093333Y-52514819D02*
X90950476Y-52562438D01*
X90950476Y-52562438D02*
X90902857Y-52610057D01*
X89950476Y-53514819D02*
X90521904Y-53514819D01*
X90236190Y-53514819D02*
X90236190Y-52514819D01*
X90236190Y-52514819D02*
X90331428Y-52657676D01*
X90331428Y-52657676D02*
X90426666Y-52752914D01*
X90426666Y-52752914D02*
X90521904Y-52800533D01*
X89093333Y-52514819D02*
X89283809Y-52514819D01*
X89283809Y-52514819D02*
X89379047Y-52562438D01*
X89379047Y-52562438D02*
X89426666Y-52610057D01*
X89426666Y-52610057D02*
X89521904Y-52752914D01*
X89521904Y-52752914D02*
X89569523Y-52943390D01*
X89569523Y-52943390D02*
X89569523Y-53324342D01*
X89569523Y-53324342D02*
X89521904Y-53419580D01*
X89521904Y-53419580D02*
X89474285Y-53467200D01*
X89474285Y-53467200D02*
X89379047Y-53514819D01*
X89379047Y-53514819D02*
X89188571Y-53514819D01*
X89188571Y-53514819D02*
X89093333Y-53467200D01*
X89093333Y-53467200D02*
X89045714Y-53419580D01*
X89045714Y-53419580D02*
X88998095Y-53324342D01*
X88998095Y-53324342D02*
X88998095Y-53086247D01*
X88998095Y-53086247D02*
X89045714Y-52991009D01*
X89045714Y-52991009D02*
X89093333Y-52943390D01*
X89093333Y-52943390D02*
X89188571Y-52895771D01*
X89188571Y-52895771D02*
X89379047Y-52895771D01*
X89379047Y-52895771D02*
X89474285Y-52943390D01*
X89474285Y-52943390D02*
X89521904Y-52991009D01*
X89521904Y-52991009D02*
X89569523Y-53086247D01*
X81116666Y-62559580D02*
X81164285Y-62607200D01*
X81164285Y-62607200D02*
X81307142Y-62654819D01*
X81307142Y-62654819D02*
X81402380Y-62654819D01*
X81402380Y-62654819D02*
X81545237Y-62607200D01*
X81545237Y-62607200D02*
X81640475Y-62511961D01*
X81640475Y-62511961D02*
X81688094Y-62416723D01*
X81688094Y-62416723D02*
X81735713Y-62226247D01*
X81735713Y-62226247D02*
X81735713Y-62083390D01*
X81735713Y-62083390D02*
X81688094Y-61892914D01*
X81688094Y-61892914D02*
X81640475Y-61797676D01*
X81640475Y-61797676D02*
X81545237Y-61702438D01*
X81545237Y-61702438D02*
X81402380Y-61654819D01*
X81402380Y-61654819D02*
X81307142Y-61654819D01*
X81307142Y-61654819D02*
X81164285Y-61702438D01*
X81164285Y-61702438D02*
X81116666Y-61750057D01*
X80545237Y-62083390D02*
X80640475Y-62035771D01*
X80640475Y-62035771D02*
X80688094Y-61988152D01*
X80688094Y-61988152D02*
X80735713Y-61892914D01*
X80735713Y-61892914D02*
X80735713Y-61845295D01*
X80735713Y-61845295D02*
X80688094Y-61750057D01*
X80688094Y-61750057D02*
X80640475Y-61702438D01*
X80640475Y-61702438D02*
X80545237Y-61654819D01*
X80545237Y-61654819D02*
X80354761Y-61654819D01*
X80354761Y-61654819D02*
X80259523Y-61702438D01*
X80259523Y-61702438D02*
X80211904Y-61750057D01*
X80211904Y-61750057D02*
X80164285Y-61845295D01*
X80164285Y-61845295D02*
X80164285Y-61892914D01*
X80164285Y-61892914D02*
X80211904Y-61988152D01*
X80211904Y-61988152D02*
X80259523Y-62035771D01*
X80259523Y-62035771D02*
X80354761Y-62083390D01*
X80354761Y-62083390D02*
X80545237Y-62083390D01*
X80545237Y-62083390D02*
X80640475Y-62131009D01*
X80640475Y-62131009D02*
X80688094Y-62178628D01*
X80688094Y-62178628D02*
X80735713Y-62273866D01*
X80735713Y-62273866D02*
X80735713Y-62464342D01*
X80735713Y-62464342D02*
X80688094Y-62559580D01*
X80688094Y-62559580D02*
X80640475Y-62607200D01*
X80640475Y-62607200D02*
X80545237Y-62654819D01*
X80545237Y-62654819D02*
X80354761Y-62654819D01*
X80354761Y-62654819D02*
X80259523Y-62607200D01*
X80259523Y-62607200D02*
X80211904Y-62559580D01*
X80211904Y-62559580D02*
X80164285Y-62464342D01*
X80164285Y-62464342D02*
X80164285Y-62273866D01*
X80164285Y-62273866D02*
X80211904Y-62178628D01*
X80211904Y-62178628D02*
X80259523Y-62131009D01*
X80259523Y-62131009D02*
X80354761Y-62083390D01*
X134179580Y-51037142D02*
X134227200Y-50989523D01*
X134227200Y-50989523D02*
X134274819Y-50846666D01*
X134274819Y-50846666D02*
X134274819Y-50751428D01*
X134274819Y-50751428D02*
X134227200Y-50608571D01*
X134227200Y-50608571D02*
X134131961Y-50513333D01*
X134131961Y-50513333D02*
X134036723Y-50465714D01*
X134036723Y-50465714D02*
X133846247Y-50418095D01*
X133846247Y-50418095D02*
X133703390Y-50418095D01*
X133703390Y-50418095D02*
X133512914Y-50465714D01*
X133512914Y-50465714D02*
X133417676Y-50513333D01*
X133417676Y-50513333D02*
X133322438Y-50608571D01*
X133322438Y-50608571D02*
X133274819Y-50751428D01*
X133274819Y-50751428D02*
X133274819Y-50846666D01*
X133274819Y-50846666D02*
X133322438Y-50989523D01*
X133322438Y-50989523D02*
X133370057Y-51037142D01*
X133608152Y-51894285D02*
X134274819Y-51894285D01*
X133227200Y-51656190D02*
X133941485Y-51418095D01*
X133941485Y-51418095D02*
X133941485Y-52037142D01*
X133274819Y-52894285D02*
X133274819Y-52418095D01*
X133274819Y-52418095D02*
X133751009Y-52370476D01*
X133751009Y-52370476D02*
X133703390Y-52418095D01*
X133703390Y-52418095D02*
X133655771Y-52513333D01*
X133655771Y-52513333D02*
X133655771Y-52751428D01*
X133655771Y-52751428D02*
X133703390Y-52846666D01*
X133703390Y-52846666D02*
X133751009Y-52894285D01*
X133751009Y-52894285D02*
X133846247Y-52941904D01*
X133846247Y-52941904D02*
X134084342Y-52941904D01*
X134084342Y-52941904D02*
X134179580Y-52894285D01*
X134179580Y-52894285D02*
X134227200Y-52846666D01*
X134227200Y-52846666D02*
X134274819Y-52751428D01*
X134274819Y-52751428D02*
X134274819Y-52513333D01*
X134274819Y-52513333D02*
X134227200Y-52418095D01*
X134227200Y-52418095D02*
X134179580Y-52370476D01*
X85122857Y-53479580D02*
X85170476Y-53527200D01*
X85170476Y-53527200D02*
X85313333Y-53574819D01*
X85313333Y-53574819D02*
X85408571Y-53574819D01*
X85408571Y-53574819D02*
X85551428Y-53527200D01*
X85551428Y-53527200D02*
X85646666Y-53431961D01*
X85646666Y-53431961D02*
X85694285Y-53336723D01*
X85694285Y-53336723D02*
X85741904Y-53146247D01*
X85741904Y-53146247D02*
X85741904Y-53003390D01*
X85741904Y-53003390D02*
X85694285Y-52812914D01*
X85694285Y-52812914D02*
X85646666Y-52717676D01*
X85646666Y-52717676D02*
X85551428Y-52622438D01*
X85551428Y-52622438D02*
X85408571Y-52574819D01*
X85408571Y-52574819D02*
X85313333Y-52574819D01*
X85313333Y-52574819D02*
X85170476Y-52622438D01*
X85170476Y-52622438D02*
X85122857Y-52670057D01*
X84170476Y-53574819D02*
X84741904Y-53574819D01*
X84456190Y-53574819D02*
X84456190Y-52574819D01*
X84456190Y-52574819D02*
X84551428Y-52717676D01*
X84551428Y-52717676D02*
X84646666Y-52812914D01*
X84646666Y-52812914D02*
X84741904Y-52860533D01*
X83313333Y-52908152D02*
X83313333Y-53574819D01*
X83551428Y-52527200D02*
X83789523Y-53241485D01*
X83789523Y-53241485D02*
X83170476Y-53241485D01*
X87642857Y-62479580D02*
X87690476Y-62527200D01*
X87690476Y-62527200D02*
X87833333Y-62574819D01*
X87833333Y-62574819D02*
X87928571Y-62574819D01*
X87928571Y-62574819D02*
X88071428Y-62527200D01*
X88071428Y-62527200D02*
X88166666Y-62431961D01*
X88166666Y-62431961D02*
X88214285Y-62336723D01*
X88214285Y-62336723D02*
X88261904Y-62146247D01*
X88261904Y-62146247D02*
X88261904Y-62003390D01*
X88261904Y-62003390D02*
X88214285Y-61812914D01*
X88214285Y-61812914D02*
X88166666Y-61717676D01*
X88166666Y-61717676D02*
X88071428Y-61622438D01*
X88071428Y-61622438D02*
X87928571Y-61574819D01*
X87928571Y-61574819D02*
X87833333Y-61574819D01*
X87833333Y-61574819D02*
X87690476Y-61622438D01*
X87690476Y-61622438D02*
X87642857Y-61670057D01*
X87261904Y-61670057D02*
X87214285Y-61622438D01*
X87214285Y-61622438D02*
X87119047Y-61574819D01*
X87119047Y-61574819D02*
X86880952Y-61574819D01*
X86880952Y-61574819D02*
X86785714Y-61622438D01*
X86785714Y-61622438D02*
X86738095Y-61670057D01*
X86738095Y-61670057D02*
X86690476Y-61765295D01*
X86690476Y-61765295D02*
X86690476Y-61860533D01*
X86690476Y-61860533D02*
X86738095Y-62003390D01*
X86738095Y-62003390D02*
X87309523Y-62574819D01*
X87309523Y-62574819D02*
X86690476Y-62574819D01*
X85738095Y-62574819D02*
X86309523Y-62574819D01*
X86023809Y-62574819D02*
X86023809Y-61574819D01*
X86023809Y-61574819D02*
X86119047Y-61717676D01*
X86119047Y-61717676D02*
X86214285Y-61812914D01*
X86214285Y-61812914D02*
X86309523Y-61860533D01*
X110069581Y-61917143D02*
X110117201Y-61869524D01*
X110117201Y-61869524D02*
X110164820Y-61726667D01*
X110164820Y-61726667D02*
X110164820Y-61631429D01*
X110164820Y-61631429D02*
X110117201Y-61488572D01*
X110117201Y-61488572D02*
X110021962Y-61393334D01*
X110021962Y-61393334D02*
X109926724Y-61345715D01*
X109926724Y-61345715D02*
X109736248Y-61298096D01*
X109736248Y-61298096D02*
X109593391Y-61298096D01*
X109593391Y-61298096D02*
X109402915Y-61345715D01*
X109402915Y-61345715D02*
X109307677Y-61393334D01*
X109307677Y-61393334D02*
X109212439Y-61488572D01*
X109212439Y-61488572D02*
X109164820Y-61631429D01*
X109164820Y-61631429D02*
X109164820Y-61726667D01*
X109164820Y-61726667D02*
X109212439Y-61869524D01*
X109212439Y-61869524D02*
X109260058Y-61917143D01*
X109260058Y-62298096D02*
X109212439Y-62345715D01*
X109212439Y-62345715D02*
X109164820Y-62440953D01*
X109164820Y-62440953D02*
X109164820Y-62679048D01*
X109164820Y-62679048D02*
X109212439Y-62774286D01*
X109212439Y-62774286D02*
X109260058Y-62821905D01*
X109260058Y-62821905D02*
X109355296Y-62869524D01*
X109355296Y-62869524D02*
X109450534Y-62869524D01*
X109450534Y-62869524D02*
X109593391Y-62821905D01*
X109593391Y-62821905D02*
X110164820Y-62250477D01*
X110164820Y-62250477D02*
X110164820Y-62869524D01*
X109164820Y-63202858D02*
X109164820Y-63869524D01*
X109164820Y-63869524D02*
X110164820Y-63440953D01*
%TO.C,R5*%
D11*
X86319736Y-89401431D02*
X89398569Y-92480264D01*
X83901431Y-91819736D02*
X86980264Y-94898569D01*
%TO.C,R59*%
X93670282Y-91299165D02*
X93349165Y-91620282D01*
X92630835Y-90259718D02*
X92309718Y-90580835D01*
%TO.C,R51*%
X84695600Y-84374953D02*
X84374483Y-84696070D01*
X85735047Y-85414400D02*
X85413930Y-85735517D01*
%TO.C,R50*%
X86085600Y-85764953D02*
X85764483Y-86086070D01*
X87125047Y-86804400D02*
X86803930Y-87125517D01*
%TO.C,R8*%
X101250000Y-83967064D02*
X101250000Y-79612936D01*
X104670000Y-83967064D02*
X104670000Y-79612936D01*
%TO.C,R7*%
X101168569Y-89689736D02*
X98089736Y-92768569D01*
X98750264Y-87271431D02*
X95671431Y-90350264D01*
%TO.C,C23*%
X115145000Y-62298748D02*
X115145000Y-62821254D01*
X116615000Y-62298748D02*
X116615000Y-62821254D01*
%TO.C,C7*%
X82421667Y-59797918D02*
X82421667Y-59275412D01*
X83891667Y-59797918D02*
X83891667Y-59275412D01*
%TO.C,C63*%
X117680833Y-88782500D02*
X122200833Y-88782500D01*
X117680833Y-97022500D02*
X117680833Y-88782500D01*
X122200833Y-88782500D02*
X122200833Y-97022500D01*
%TO.C,C19*%
X90728333Y-59794585D02*
X90728333Y-59272079D01*
X92198333Y-59794585D02*
X92198333Y-59272079D01*
%TO.C,C15*%
X86560000Y-55340327D02*
X86560000Y-55862833D01*
X88030000Y-55340327D02*
X88030000Y-55862833D01*
%TO.C,C24*%
X112885000Y-66511253D02*
X112885000Y-65988747D01*
X114355000Y-66511253D02*
X114355000Y-65988747D01*
%TO.C,C61*%
X107502500Y-88782500D02*
X112022500Y-88782500D01*
X107502500Y-97022500D02*
X107502500Y-88782500D01*
X112022500Y-88782500D02*
X112022500Y-97022500D01*
%TO.C,C38*%
X77381605Y-30075000D02*
X77904109Y-30075000D01*
X77381605Y-31545000D02*
X77904109Y-31545000D01*
%TO.C,C36*%
X87588748Y-30075000D02*
X88111252Y-30075000D01*
X87588748Y-31545000D02*
X88111252Y-31545000D01*
%TO.C,C42*%
X131405000Y-61931252D02*
X131405000Y-61408748D01*
X132875000Y-61931252D02*
X132875000Y-61408748D01*
%TO.C,C17*%
X90703333Y-55340327D02*
X90703333Y-55862833D01*
X92173333Y-55340327D02*
X92173333Y-55862833D01*
%TO.C,C25*%
X110655000Y-66511253D02*
X110655000Y-65988747D01*
X112125000Y-66511253D02*
X112125000Y-65988747D01*
%TO.C,C62*%
X112591667Y-88782500D02*
X117111667Y-88782500D01*
X112591667Y-97022500D02*
X112591667Y-88782500D01*
X117111667Y-88782500D02*
X117111667Y-97022500D01*
%TO.C,C12*%
X80345000Y-55340327D02*
X80345000Y-55862833D01*
X81815000Y-55340327D02*
X81815000Y-55862833D01*
%TO.C,C60*%
X122770000Y-84062500D02*
X127290000Y-84062500D01*
X122770000Y-92302500D02*
X122770000Y-84062500D01*
X127290000Y-84062500D02*
X127290000Y-92302500D01*
%TO.C,C20*%
X88651667Y-59801252D02*
X88651667Y-59278746D01*
X90121667Y-59801252D02*
X90121667Y-59278746D01*
%TO.C,C35*%
X131405000Y-81921252D02*
X131405000Y-81398748D01*
X132875000Y-81921252D02*
X132875000Y-81398748D01*
%TO.C,C37*%
X131405000Y-41951252D02*
X131405000Y-41428748D01*
X132875000Y-41951252D02*
X132875000Y-41428748D01*
%TO.C,D13*%
X112862500Y-83800000D02*
X118672500Y-83800000D01*
X112862500Y-88100000D02*
X112862500Y-83800000D01*
X112862500Y-88100000D02*
X118672500Y-88100000D01*
%TO.C,C18*%
X92775000Y-55340327D02*
X92775000Y-55862833D01*
X94245000Y-55340327D02*
X94245000Y-55862833D01*
%TO.C,C53*%
X110725000Y-85691252D02*
X110725000Y-85168748D01*
X112195000Y-85691252D02*
X112195000Y-85168748D01*
%TO.C,C40*%
X118210176Y-30075000D02*
X118732680Y-30075000D01*
X118210176Y-31545000D02*
X118732680Y-31545000D01*
%TO.C,C44*%
X56967319Y-30075000D02*
X57489823Y-30075000D01*
X56967319Y-31545000D02*
X57489823Y-31545000D01*
%TO.C,C22*%
X115145000Y-66511253D02*
X115145000Y-65988747D01*
X116615000Y-66511253D02*
X116615000Y-65988747D01*
%TO.C,C46*%
X97795890Y-30075000D02*
X98318394Y-30075000D01*
X97795890Y-31545000D02*
X98318394Y-31545000D01*
%TO.C,C41*%
X67174462Y-30075000D02*
X67696966Y-30075000D01*
X67174462Y-31545000D02*
X67696966Y-31545000D01*
%TO.C,C6*%
X84498333Y-59784585D02*
X84498333Y-59262079D01*
X85968333Y-59784585D02*
X85968333Y-59262079D01*
%TO.C,C39*%
X131405000Y-71921252D02*
X131405000Y-71398748D01*
X132875000Y-71921252D02*
X132875000Y-71398748D01*
%TO.C,C26*%
X112885000Y-62298748D02*
X112885000Y-62821254D01*
X114355000Y-62298748D02*
X114355000Y-62821254D01*
%TO.C,C13*%
X82416667Y-55340327D02*
X82416667Y-55862833D01*
X83886667Y-55340327D02*
X83886667Y-55862833D01*
%TO.C,C43*%
X108003033Y-30075000D02*
X108525537Y-30075000D01*
X108003033Y-31545000D02*
X108525537Y-31545000D01*
%TO.C,C16*%
X88631667Y-55340327D02*
X88631667Y-55862833D01*
X90101667Y-55340327D02*
X90101667Y-55862833D01*
%TO.C,C8*%
X80345000Y-59787918D02*
X80345000Y-59265412D01*
X81815000Y-59787918D02*
X81815000Y-59265412D01*
%TO.C,C45*%
X131405000Y-51941252D02*
X131405000Y-51418748D01*
X132875000Y-51941252D02*
X132875000Y-51418748D01*
%TO.C,C14*%
X84488333Y-55340327D02*
X84488333Y-55862833D01*
X85958333Y-55340327D02*
X85958333Y-55862833D01*
%TO.C,C21*%
X86575000Y-59791252D02*
X86575000Y-59268746D01*
X88045000Y-59791252D02*
X88045000Y-59268746D01*
%TO.C,C27*%
X110655000Y-62298748D02*
X110655000Y-62821254D01*
X112125000Y-62298748D02*
X112125000Y-62821254D01*
%TD*%
%LPC*%
D12*
%TO.C,Y1*%
X96554659Y-72255341D03*
X100005340Y-68804660D03*
%TD*%
D13*
%TO.C,R5*%
X88744804Y-94244804D03*
X84555196Y-90055196D03*
%TD*%
D14*
%TO.C,R59*%
X92344765Y-91585235D03*
X93635235Y-90294765D03*
%TD*%
%TO.C,R51*%
X85700000Y-84410000D03*
X84409530Y-85700470D03*
%TD*%
%TO.C,R50*%
X87090000Y-85800000D03*
X85799530Y-87090470D03*
%TD*%
D15*
%TO.C,R8*%
X102960000Y-78827500D03*
X102960000Y-84752500D03*
%TD*%
D16*
%TO.C,R7*%
X96325196Y-92114804D03*
X100514804Y-87925196D03*
%TD*%
D17*
%TO.C,J4*%
X71280000Y-91370000D03*
D18*
X73820000Y-91370000D03*
X76360000Y-91370000D03*
%TD*%
D17*
%TO.C,J19*%
X135362500Y-36540000D03*
D18*
X135362500Y-39080000D03*
X135362500Y-41620000D03*
%TD*%
D17*
%TO.C,J15*%
X93000000Y-27852857D03*
D18*
X90460000Y-27852857D03*
X87920000Y-27852857D03*
%TD*%
D17*
%TO.C,J11*%
X135362500Y-76510000D03*
D18*
X135362500Y-79050000D03*
X135362500Y-81590000D03*
%TD*%
D19*
%TO.C,H2*%
X42150000Y-121060000D03*
%TD*%
D17*
%TO.C,J17*%
X72585714Y-27874286D03*
D18*
X70045714Y-27874286D03*
X67505714Y-27874286D03*
%TD*%
D17*
%TO.C,J22*%
X103207142Y-27895714D03*
D18*
X100667142Y-27895714D03*
X98127142Y-27895714D03*
%TD*%
D20*
%TO.C,C10*%
X58555000Y-117392323D03*
D21*
X58555000Y-122392323D03*
%TD*%
D22*
%TO.C,F1*%
X43227500Y-101410000D03*
X47827500Y-101410000D03*
X59127500Y-101410000D03*
X63727500Y-101410000D03*
%TD*%
D23*
%TO.C,J9*%
X132100000Y-113505000D03*
D24*
X132100000Y-108425000D03*
%TD*%
D25*
%TO.C,J6*%
X45190000Y-40540000D03*
X45190000Y-47540000D03*
D26*
X41340000Y-38120000D03*
D27*
X45660000Y-39390000D03*
X45660000Y-48690000D03*
D26*
X41340000Y-49960000D03*
%TD*%
D23*
%TO.C,J5*%
X42225000Y-108165000D03*
D24*
X42225000Y-113245000D03*
%TD*%
D17*
%TO.C,J8*%
X68080000Y-71220001D03*
D18*
X68080000Y-73760001D03*
X68080000Y-76300000D03*
X68080000Y-78840001D03*
X68080000Y-81380001D03*
X68080000Y-83920001D03*
%TD*%
D19*
%TO.C,H4*%
X42150000Y-31060000D03*
%TD*%
D17*
%TO.C,J20*%
X123621428Y-27960000D03*
D18*
X121081428Y-27960000D03*
X118541428Y-27960000D03*
%TD*%
D17*
%TO.C,J21*%
X113414285Y-27917143D03*
D18*
X110874285Y-27917143D03*
X108334285Y-27917143D03*
%TD*%
D22*
%TO.C,F2*%
X119100000Y-123410000D03*
X119100000Y-118810000D03*
X119100000Y-107510000D03*
X119100000Y-102910000D03*
%TD*%
D17*
%TO.C,J16*%
X82792857Y-27810000D03*
D18*
X80252857Y-27810000D03*
X77712857Y-27810000D03*
%TD*%
D28*
%TO.C,J7*%
X103000000Y-116740000D03*
D29*
X105500000Y-116740000D03*
X107500000Y-116740000D03*
X110000000Y-116740000D03*
D30*
X99930000Y-119450000D03*
X113070000Y-119450000D03*
%TD*%
D17*
%TO.C,J12*%
X135362500Y-66510000D03*
D18*
X135362500Y-69050000D03*
X135362500Y-71590000D03*
%TD*%
D17*
%TO.C,J18*%
X62378571Y-27831429D03*
D18*
X59838571Y-27831429D03*
X57298571Y-27831429D03*
%TD*%
D17*
%TO.C,J14*%
X135362500Y-46530000D03*
D18*
X135362500Y-49070000D03*
X135362500Y-51610000D03*
%TD*%
D17*
%TO.C,J3*%
X38925000Y-102685000D03*
D18*
X38925000Y-100145000D03*
%TD*%
D17*
%TO.C,J1*%
X77740000Y-76970001D03*
D18*
X77740000Y-79510001D03*
X77740000Y-82050000D03*
%TD*%
D17*
%TO.C,J13*%
X135362500Y-56520000D03*
D18*
X135362500Y-59060000D03*
X135362500Y-61600000D03*
%TD*%
D19*
%TO.C,H3*%
X132150000Y-31060000D03*
%TD*%
D17*
%TO.C,J2*%
X39450000Y-57880000D03*
D18*
X39450000Y-60420000D03*
X39450000Y-62960000D03*
X39450000Y-65500000D03*
%TD*%
D19*
%TO.C,H1*%
X132150000Y-121060000D03*
%TD*%
D23*
%TO.C,J10*%
X131995000Y-91795000D03*
D24*
X131995000Y-86715000D03*
%TD*%
D31*
%TO.C,C23*%
X115880000Y-61610002D03*
X115880000Y-63510000D03*
%TD*%
D32*
%TO.C,C7*%
X83156667Y-60486664D03*
X83156667Y-58586666D03*
%TD*%
D33*
%TO.C,C63*%
X119940833Y-90165000D03*
X119940833Y-96580000D03*
%TD*%
D32*
%TO.C,C19*%
X91463333Y-60483331D03*
X91463333Y-58583333D03*
%TD*%
D31*
%TO.C,C15*%
X87295000Y-54651581D03*
X87295000Y-56551579D03*
%TD*%
D32*
%TO.C,C24*%
X113620000Y-67199999D03*
X113620000Y-65300001D03*
%TD*%
D33*
%TO.C,C61*%
X109762500Y-90165000D03*
X109762500Y-96580000D03*
%TD*%
D34*
%TO.C,C38*%
X76692857Y-30810000D03*
X78592857Y-30810000D03*
%TD*%
%TO.C,C36*%
X86900000Y-30810000D03*
X88800000Y-30810000D03*
%TD*%
D32*
%TO.C,C42*%
X132140000Y-62620000D03*
X132140000Y-60720000D03*
%TD*%
D31*
%TO.C,C17*%
X91438333Y-54651581D03*
X91438333Y-56551579D03*
%TD*%
D32*
%TO.C,C25*%
X111390000Y-67199999D03*
X111390000Y-65300001D03*
%TD*%
D33*
%TO.C,C62*%
X114851667Y-90165000D03*
X114851667Y-96580000D03*
%TD*%
D31*
%TO.C,C12*%
X81080000Y-54651581D03*
X81080000Y-56551579D03*
%TD*%
D33*
%TO.C,C60*%
X125030000Y-85445000D03*
X125030000Y-91860000D03*
%TD*%
D32*
%TO.C,C20*%
X89386667Y-60489998D03*
X89386667Y-58590000D03*
%TD*%
%TO.C,C35*%
X132140000Y-82610000D03*
X132140000Y-80710000D03*
%TD*%
%TO.C,C37*%
X132140000Y-42640000D03*
X132140000Y-40740000D03*
%TD*%
D35*
%TO.C,D13*%
X114372500Y-85950000D03*
X118672500Y-85950000D03*
%TD*%
D31*
%TO.C,C18*%
X93510000Y-54651581D03*
X93510000Y-56551579D03*
%TD*%
D32*
%TO.C,C53*%
X111460000Y-86380000D03*
X111460000Y-84480000D03*
%TD*%
D34*
%TO.C,C40*%
X117521428Y-30810000D03*
X119421428Y-30810000D03*
%TD*%
%TO.C,C44*%
X56278571Y-30810000D03*
X58178571Y-30810000D03*
%TD*%
D32*
%TO.C,C22*%
X115880000Y-67199999D03*
X115880000Y-65300001D03*
%TD*%
D34*
%TO.C,C46*%
X97107142Y-30810000D03*
X99007142Y-30810000D03*
%TD*%
%TO.C,C41*%
X66485714Y-30810000D03*
X68385714Y-30810000D03*
%TD*%
D32*
%TO.C,C6*%
X85233333Y-60473331D03*
X85233333Y-58573333D03*
%TD*%
%TO.C,C39*%
X132140000Y-72610000D03*
X132140000Y-70710000D03*
%TD*%
D31*
%TO.C,C26*%
X113620000Y-61610002D03*
X113620000Y-63510000D03*
%TD*%
%TO.C,C13*%
X83151667Y-54651581D03*
X83151667Y-56551579D03*
%TD*%
D34*
%TO.C,C43*%
X107314285Y-30810000D03*
X109214285Y-30810000D03*
%TD*%
D31*
%TO.C,C16*%
X89366667Y-54651581D03*
X89366667Y-56551579D03*
%TD*%
D32*
%TO.C,C8*%
X81080000Y-60476664D03*
X81080000Y-58576666D03*
%TD*%
%TO.C,C45*%
X132140000Y-52630000D03*
X132140000Y-50730000D03*
%TD*%
D31*
%TO.C,C14*%
X85223333Y-54651581D03*
X85223333Y-56551579D03*
%TD*%
D32*
%TO.C,C21*%
X87310000Y-60479998D03*
X87310000Y-58580000D03*
%TD*%
D31*
%TO.C,C27*%
X111390000Y-61610002D03*
X111390000Y-63510000D03*
%TD*%
%LPD*%
M02*
