M48
; DRILL file KiCad 10.0.6-10.0.6~ubuntu24.04.1 date 2026-09-05T18:14:19
; FORMAT={-:-/ absolute / metric / decimal}
; #@! TF.CreationDate,2026-09-05T18:14:19+07:00
; #@! TF.GenerationSoftware,Kicad,Pcbnew,10.0.6-10.0.6~ubuntu24.04.1
; #@! TF.FileFunction,Plated,1,2,PTH
FMAT,2
METRIC
; #@! TA.AperFunction,Plated,PTH,ViaDrill
T1C0.200
; #@! TA.AperFunction,Plated,PTH,ViaDrill
T2C0.300
; #@! TA.AperFunction,Plated,PTH,ComponentDrill
T3C0.300
; #@! TA.AperFunction,Plated,PTH,ViaDrill
T4C0.500
; #@! TA.AperFunction,Plated,PTH,ViaDrill
T5C0.600
; #@! TA.AperFunction,Plated,PTH,ComponentDrill
T6C0.600
; #@! TA.AperFunction,Plated,PTH,ComponentDrill
T7C0.800
; #@! TA.AperFunction,Plated,PTH,ComponentDrill
T8C0.950
; #@! TA.AperFunction,Plated,PTH,ComponentDrill
T9C1.000
; #@! TA.AperFunction,Plated,PTH,ComponentDrill
T10C1.300
; #@! TA.AperFunction,Plated,PTH,ComponentDrill
T11C2.300
; #@! TA.AperFunction,Plated,PTH,ComponentDrill
T12C3.200
%
G90
G05
T1
X53.73Y-40.73
X53.73Y-44.01
X53.73Y-47.77
T2
X41.21Y-51.46
X41.36Y-36.66
X45.66Y-37.96
X45.71Y-50.16
X49.06Y-43.06
X51.06Y-46.16
X52.16Y-41.96
X53.79Y-69.42
X54.38Y-27.831
X54.87Y-80.29
X55.74Y-95.64
X58.24Y-35.58
X60.58Y-58.76
X62.02Y-45.17
X62.05Y-42.06
X65.126Y-27.874
X65.175Y-45.985
X65.25Y-42.06
X67.525Y-48.335
X67.75Y-44.06
X67.95Y-33.16
X69.82Y-36.25
X69.888Y-50.697
X69.925Y-46.235
X72.05Y-52.86
X72.125Y-48.435
X73.1Y-63.79
X74.287Y-50.597
X75.194Y-27.81
X78.31Y-56.55
X78.56Y-59.31
X79.47Y-52.05
X80.17Y-33.01
X80.22Y-69.12
X80.33Y-80.56
X80.92Y-45.89
X85.45Y-46.52
X85.533Y-27.853
X87.73Y-51.39
X88.495Y-84.275
X88.83Y-85.26
X89.49Y-86.21
X89.66Y-89.9
X90.29Y-33.76
X90.8Y-86.233
X90.86Y-73.32
X92.32Y-64.19
X92.49Y-74.08
X92.83Y-79.76
X93.49Y-61.33
X94.02Y-79.49
X94.062Y-86.08
X94.76Y-102.61
X95.03Y-52.21
X95.207Y-80.907
X95.21Y-86.31
X95.356Y-81.676
X95.793Y-27.896
X96.47Y-57.05
X96.49Y-46.65
X96.95Y-85.48
X99.77Y-93.9
X100.76Y-63.58
X101.05Y-40.4
X102.04Y-53.95
X103.63Y-35.95
X103.78Y-64.42
X104.63Y-63.51
X105.66Y-88.88
X106.067Y-27.917
X107.47Y-39.72
X111.26Y-87.86
X116.083Y-27.96
X118.34Y-44.62
X118.35Y-54.44
X123.06Y-39.91
X123.85Y-64.6
X123.85Y-73.51
X125.98Y-51.47
X126.04Y-46.64
X135.362Y-44.01
X135.362Y-54.03
X135.362Y-64.08
X135.362Y-74.16
X135.362Y-83.63
T3
X50.207Y-90.867
X50.207Y-92.067
X51.407Y-90.867
X51.407Y-92.067
X52.707Y-90.867
X52.707Y-92.067
X53.807Y-90.867
X53.807Y-92.067
T4
X93.27Y-102.07
T5
X57.2Y-106.11
T7
X96.555Y-72.255
X100.005Y-68.805
T8
X103.0Y-116.74
X105.5Y-116.74
X107.5Y-116.74
X110.0Y-116.74
T9
X38.925Y-100.145
X38.925Y-102.685
X39.45Y-57.88
X39.45Y-60.42
X39.45Y-62.96
X39.45Y-65.5
X57.299Y-27.831
X58.555Y-117.392
X58.555Y-122.392
X59.839Y-27.831
X62.379Y-27.831
X67.506Y-27.874
X68.08Y-71.22
X68.08Y-73.76
X68.08Y-76.3
X68.08Y-78.84
X68.08Y-81.38
X68.08Y-83.92
X70.046Y-27.874
X71.28Y-91.37
X72.586Y-27.874
X73.82Y-91.37
X76.36Y-91.37
X77.713Y-27.81
X77.74Y-76.97
X77.74Y-79.51
X77.74Y-82.05
X80.253Y-27.81
X82.793Y-27.81
X87.92Y-27.853
X90.46Y-27.853
X93.0Y-27.853
X98.127Y-27.896
X100.667Y-27.896
X103.207Y-27.896
X108.334Y-27.917
X110.874Y-27.917
X113.414Y-27.917
X118.541Y-27.96
X121.081Y-27.96
X123.621Y-27.96
X135.362Y-36.54
X135.362Y-39.08
X135.362Y-41.62
X135.362Y-46.53
X135.362Y-49.07
X135.362Y-51.61
X135.362Y-56.52
X135.362Y-59.06
X135.362Y-61.6
X135.362Y-66.51
X135.362Y-69.05
X135.362Y-71.59
X135.362Y-76.51
X135.362Y-79.05
X135.362Y-81.59
T10
X42.225Y-108.165
X42.225Y-113.245
X43.227Y-101.41
X47.828Y-101.41
X59.127Y-101.41
X63.727Y-101.41
X119.1Y-102.91
X119.1Y-107.51
X119.1Y-118.81
X119.1Y-123.41
X131.995Y-86.715
X131.995Y-91.795
X132.1Y-108.425
X132.1Y-113.505
T11
X99.93Y-119.45
X113.07Y-119.45
T12
X42.15Y-31.06
X42.15Y-121.06
X132.15Y-31.06
X132.15Y-121.06
T6
G00X41.79Y-38.12
M15
G01X40.89Y-38.12
M16
G05
G00X41.79Y-49.96
M15
G01X40.89Y-49.96
M16
G05
G00X45.96Y-39.39
M15
G01X45.36Y-39.39
M16
G05
G00X45.96Y-48.69
M15
G01X45.36Y-48.69
M16
G05
M30
